<svg width="24" height="24" viewBox="0 0 24 24" fill="none" xmlns="http://www.w3.org/2000/svg">
<g clip-path="url(#clip0_301_1584)">
<g filter="url(#filter0_d_301_1584)">
<path d="M2.10965 7.19349C2.25814 6.66019 2.90329 6.54779 3.35681 6.86526L11.4265 12.5141C11.7709 12.7551 12.2291 12.7551 12.5735 12.5141L20.6432 6.86526C21.0967 6.54779 21.7419 6.66019 21.8904 7.19349C21.9618 7.45012 22 7.7206 22 8V17C22 18.6569 20.6569 20 19 20H5C3.34315 20 2 18.6569 2 17V8C2 7.7206 2.0382 7.45012 2.10965 7.19349Z" fill="url(#paint0_linear_301_1584)"/>
<path d="M4.80307 6.04666C4.31917 5.70793 4.40933 5 5 5H19C19.5907 5 19.6808 5.70793 19.1969 6.04666L12.5735 10.6831C12.2291 10.9241 11.7709 10.9241 11.4265 10.6831L4.80307 6.04666Z" fill="url(#paint1_linear_301_1584)"/>
</g>
</g>
<defs>
<filter id="filter0_d_301_1584" x="-1" y="2" width="26" height="21" filterUnits="userSpaceOnUse" color-interpolation-filters="sRGB">
<feFlood flood-opacity="0" result="BackgroundImageFix"/>
<feColorMatrix in="SourceAlpha" type="matrix" values="0 0 0 0 0 0 0 0 0 0 0 0 0 0 0 0 0 0 127 0" result="hardAlpha"/>
<feOffset/>
<feGaussianBlur stdDeviation="1.5"/>
<feColorMatrix type="matrix" values="0 0 0 0 0.2125 0 0 0 0 0.38575 0 0 0 0 1 0 0 0 0.54 0"/>
<feBlend mode="normal" in2="BackgroundImageFix" result="effect1_dropShadow_301_1584"/>
<feBlend mode="normal" in="SourceGraphic" in2="effect1_dropShadow_301_1584" result="shape"/>
</filter>
<linearGradient id="paint0_linear_301_1584" x1="2" y1="5" x2="22" y2="20" gradientUnits="userSpaceOnUse">
<stop stop-color="#65D6FC"/>
<stop offset="1" stop-color="#099CCD"/>
</linearGradient>
<linearGradient id="paint1_linear_301_1584" x1="2" y1="5" x2="22" y2="20" gradientUnits="userSpaceOnUse">
<stop stop-color="#65D6FC"/>
<stop offset="1" stop-color="#099CCD"/>
</linearGradient>
<clipPath id="clip0_301_1584">
<rect width="24" height="24" fill="white"/>
</clipPath>
</defs>
</svg>
