<svg width="24" height="24" viewBox="0 0 24 24" fill="none" xmlns="http://www.w3.org/2000/svg">
<g clip-path="url(#clip0_301_1624)">
<g filter="url(#filter0_d_301_1624)">
<path d="M6.64848 5.58875C9.81652 3.1672 14.2074 3.20371 17.3745 5.62652C19.6589 7.37413 21.8138 9.68652 21.8371 12.2023C21.8556 14.1994 20.5281 16.0436 18.853 17.5723C18.4726 17.9195 17.8887 17.8889 17.5245 17.5247L15.5354 15.5355C15.1448 15.145 15.1584 14.5158 15.4406 14.0411C15.7958 13.4435 15.9998 12.7456 15.9998 12C15.9998 9.79085 14.2089 7.99999 11.9998 7.99999C11.2542 7.99999 10.5563 8.20399 9.95874 8.5592C9.48401 8.84141 8.85483 8.85495 8.46431 8.46443L6.59087 6.59099C6.30493 6.30505 6.3272 5.83433 6.64848 5.58875Z" fill="url(#paint0_linear_301_1624)"/>
<path d="M5.64132 7.76276C5.25285 7.37429 4.61948 7.36869 4.25825 7.78261C3.14524 9.05797 2.37277 10.4953 2.38691 12.0221C2.41021 14.5378 4.56504 16.8502 6.8495 18.5978C9.47436 20.6058 12.9398 20.9747 15.853 19.6636C16.4367 19.4009 16.5208 18.6423 16.0683 18.1897L14.039 16.1605C13.7507 15.8722 13.3185 15.7996 12.9217 15.8932C12.6257 15.9631 12.3171 16 11.9998 16C9.79066 16 7.99979 14.2091 7.99979 12C7.99979 11.6827 8.03674 11.3741 8.10655 11.0781C8.20016 10.6813 8.12761 10.249 7.83932 9.96077L5.64132 7.76276Z" fill="url(#paint1_linear_301_1624)"/>
<path d="M4.59076 3.53033C4.88366 3.23744 5.35853 3.23744 5.65142 3.53033L20.8542 18.7331C21.1471 19.026 21.1471 19.5009 20.8542 19.7938C20.5613 20.0867 20.0865 20.0867 19.7936 19.7938L4.59076 4.59099C4.29787 4.2981 4.29787 3.82322 4.59076 3.53033Z" fill="url(#paint2_linear_301_1624)"/>
</g>
</g>
<defs>
<filter id="filter0_d_301_1624" x="-0.613281" y="0.310669" width="25.4505" height="23.1228" filterUnits="userSpaceOnUse" color-interpolation-filters="sRGB">
<feFlood flood-opacity="0" result="BackgroundImageFix"/>
<feColorMatrix in="SourceAlpha" type="matrix" values="0 0 0 0 0 0 0 0 0 0 0 0 0 0 0 0 0 0 127 0" result="hardAlpha"/>
<feOffset/>
<feGaussianBlur stdDeviation="1.5"/>
<feColorMatrix type="matrix" values="0 0 0 0 0.2125 0 0 0 0 0.38575 0 0 0 0 1 0 0 0 0.54 0"/>
<feBlend mode="normal" in2="BackgroundImageFix" result="effect1_dropShadow_301_1624"/>
<feBlend mode="normal" in="SourceGraphic" in2="effect1_dropShadow_301_1624" result="shape"/>
</filter>
<linearGradient id="paint0_linear_301_1624" x1="2.38672" y1="3" x2="24.1905" y2="16.6837" gradientUnits="userSpaceOnUse">
<stop stop-color="#65D6FC"/>
<stop offset="1" stop-color="#0DC7D2"/>
</linearGradient>
<linearGradient id="paint1_linear_301_1624" x1="2.38672" y1="3" x2="24.1905" y2="16.6837" gradientUnits="userSpaceOnUse">
<stop stop-color="#65D6FC"/>
<stop offset="1" stop-color="#0DC7D2"/>
</linearGradient>
<linearGradient id="paint2_linear_301_1624" x1="2.38672" y1="3" x2="24.1905" y2="16.6837" gradientUnits="userSpaceOnUse">
<stop stop-color="#65D6FC"/>
<stop offset="1" stop-color="#0DC7D2"/>
</linearGradient>
<clipPath id="clip0_301_1624">
<rect width="24" height="24" fill="white"/>
</clipPath>
</defs>
</svg>
