<svg width="35" height="35" viewBox="0 0 35 35" fill="none" xmlns="http://www.w3.org/2000/svg">
<path fill-rule="evenodd" clip-rule="evenodd" d="M30.625 16.1846V23.466C30.625 27.981 30.625 30.24 29.5546 31.2258C29.0442 31.6969 28.3996 31.9929 27.7127 32.0717C26.2733 32.2365 24.5919 30.7489 21.2304 27.7754C19.7429 26.4614 19.0006 25.8037 18.1417 25.6317C17.7182 25.5462 17.2818 25.5462 16.8583 25.6317C15.9979 25.8037 15.2556 26.4614 13.7696 27.7754C10.4081 30.7489 8.72667 32.2364 7.28729 32.0702C6.5993 31.9913 5.95425 31.6956 5.44542 31.2258C4.375 30.24 4.375 27.9825 4.375 23.466V16.1831C4.375 9.93124 4.375 6.80311 6.29708 4.86061C8.21917 2.91666 11.3138 2.91666 17.5 2.91666C23.6877 2.91666 26.7808 2.91666 28.7029 4.85916C30.625 6.80311 30.625 9.93124 30.625 16.1846ZM12.0312 8.74999C12.0312 8.45991 12.1465 8.18171 12.3516 7.97659C12.5567 7.77147 12.8349 7.65624 13.125 7.65624H21.875C22.1651 7.65624 22.4433 7.77147 22.6484 7.97659C22.8535 8.18171 22.9688 8.45991 22.9688 8.74999C22.9688 9.04007 22.8535 9.31827 22.6484 9.52339C22.4433 9.72851 22.1651 9.84374 21.875 9.84374H13.125C12.8349 9.84374 12.5567 9.72851 12.3516 9.52339C12.1465 9.31827 12.0312 9.04007 12.0312 8.74999Z" fill="white"/>
</svg>
