<svg width="193" height="144" viewBox="0 0 193 144" fill="none" xmlns="http://www.w3.org/2000/svg">
<path opacity="0.3" fill-rule="evenodd" clip-rule="evenodd" d="M208 66.2706C207.679 66.1163 207.361 65.962 207.033 65.8098C199.038 62.1099 195.074 57.082 193.133 53.3904C194.995 52.4544 196.297 50.3199 196.297 47.833C196.297 44.8699 194.449 42.4075 192.01 41.8775L191.923 39.203C192.597 38.865 193.069 38.0943 193.069 37.1943C193.069 36.2382 192.534 35.4333 191.791 35.1339L191.585 28.7163C193.947 29.3003 196.465 29.2003 198.917 28.249C202.6 26.8177 205.402 23.7972 206.974 20.0745C205.662 21.3668 204.125 22.3931 202.391 23.0673C195.131 25.8844 187.251 21.3905 184.801 13.034C183.586 8.89304 183.925 4.59116 185.458 0.960022C181.282 5.07908 179.458 11.8442 181.327 18.2157C182.877 23.5097 186.613 27.2456 190.986 28.5616L190.646 35.0949C189.848 35.3561 189.26 36.1921 189.26 37.1943C189.26 38.1052 189.743 38.886 190.431 39.2165L190.294 41.8337C187.732 42.2458 185.759 44.7704 185.759 47.833C185.759 50.4282 187.178 52.6359 189.169 53.5018C187.208 57.1824 183.242 62.1476 175.328 65.8098C160.846 72.5088 154.451 81.3116 152.471 91.8595V90.8473C152.658 90.6917 152.81 90.4576 152.81 90.1459C152.81 89.7167 152.54 89.3265 152.201 89.2494V84.9203H152.54C152.759 84.9203 152.946 84.6875 152.946 84.4539C152.946 84.1799 152.759 83.9866 152.54 83.9866H152.066C152.303 83.2058 152.574 81.7236 151.998 80.2038C151.726 79.5015 151.185 78.8382 150.574 78.2551C149.966 77.6694 149.304 77.2012 148.779 76.851C148.797 76.7729 148.813 76.6164 148.813 76.499C148.831 76.3438 148.813 76.1487 148.747 75.9536C148.661 75.7594 148.507 75.5639 148.339 75.4083C148.17 75.2917 148.001 75.1351 147.882 75.0571L147.865 74.7454C147.898 74.706 147.933 74.6674 147.95 74.6279C147.967 74.5885 148.001 74.5105 148.001 74.4723C148.001 74.3943 147.967 74.3158 147.933 74.2781C147.916 74.1992 147.882 74.1606 147.831 74.1606V73.8481C147.865 73.8481 147.882 73.8095 147.898 73.77C147.916 73.7315 147.933 73.6911 147.933 73.6148C147.933 73.5754 147.916 73.5359 147.898 73.4974C147.865 73.4579 147.849 73.4184 147.814 73.3799L147.798 73.0682L147.713 70.807C147.713 70.7684 147.694 70.7281 147.662 70.7281C147.645 70.7281 147.627 70.7684 147.627 70.807L147.527 73.0682V73.3799C147.492 73.4184 147.458 73.4579 147.441 73.4974C147.424 73.5359 147.407 73.5754 147.407 73.6148C147.407 73.6911 147.424 73.7315 147.441 73.77C147.458 73.8095 147.475 73.8481 147.492 73.8481V74.1606C147.458 74.1606 147.424 74.1992 147.391 74.2781C147.357 74.3158 147.34 74.3947 147.34 74.4723C147.34 74.5109 147.357 74.5889 147.391 74.6279C147.391 74.6674 147.424 74.706 147.458 74.7454V75.0571C147.322 75.1351 147.153 75.2917 147.001 75.4083C146.815 75.5639 146.68 75.7594 146.594 75.9536C146.509 76.1487 146.509 76.3056 146.509 76.499C146.509 76.6164 146.543 76.7729 146.577 76.851C146.019 77.2012 145.359 77.6694 144.749 78.2551C144.139 78.8382 143.597 79.5019 143.327 80.2038C142.75 81.7236 143.037 83.2058 143.258 83.9866H142.868C142.649 83.9866 142.462 84.1799 142.462 84.4539C142.462 84.6875 142.649 84.9203 142.868 84.9203H143.19V89.2494C142.852 89.3265 142.58 89.7167 142.58 90.1459C142.58 90.4576 142.75 90.6912 142.953 90.8473V94.357H141.276V89.7171H138.956V88.587H139.159C139.363 88.587 139.533 88.391 139.533 88.1574C139.533 87.8851 139.363 87.6901 139.159 87.6901H138.956C139.329 86.6761 140.311 83.4005 139.042 80.0867C138.55 78.7615 137.552 77.5524 136.415 76.4613C135.298 75.4083 134.078 74.5109 133.08 73.8481C133.13 73.6916 133.164 73.4583 133.181 73.1852C133.197 72.9121 133.164 72.5618 133.028 72.2107C132.893 71.8595 132.589 71.5084 132.284 71.2353C131.979 70.9622 131.673 70.7285 131.435 70.5724L131.402 69.9885C131.47 69.9096 131.538 69.871 131.572 69.754C131.606 69.6759 131.639 69.5589 131.639 69.4414C131.639 69.3239 131.606 69.2077 131.555 69.0911C131.504 69.0131 131.435 68.9355 131.369 68.896L131.351 68.3507C131.402 68.3113 131.435 68.2332 131.47 68.1942C131.505 68.1162 131.522 68.0386 131.522 67.9211C131.522 67.8439 131.505 67.7269 131.453 67.648C131.419 67.5708 131.369 67.5314 131.317 67.4928L131.301 66.908L131.131 62.6973C131.131 62.6579 131.098 62.6184 131.047 62.5798C130.996 62.5798 130.962 62.6184 130.962 62.6973L130.793 66.908L130.775 67.4928C130.725 67.5314 130.657 67.5708 130.624 67.648C130.589 67.7269 130.556 67.8439 130.556 67.9211C130.556 68.0386 130.589 68.1162 130.624 68.1942C130.657 68.2337 130.692 68.3117 130.742 68.3507L130.725 68.896C130.64 68.9355 130.59 69.0135 130.521 69.0911C130.488 69.2077 130.454 69.3239 130.454 69.4414C130.454 69.5589 130.488 69.6759 130.521 69.754C130.556 69.8715 130.608 69.9096 130.674 69.9885L130.657 70.5724C130.42 70.7281 130.097 70.9622 129.811 71.2353C129.488 71.5084 129.2 71.8595 129.066 72.2107C128.93 72.5618 128.897 72.9121 128.897 73.1852C128.93 73.4583 128.964 73.6911 129.013 73.8481C128.015 74.5109 126.779 75.4083 125.678 76.4613C124.543 77.552 123.543 78.761 123.036 80.0867C121.783 83.4005 122.748 86.6761 123.138 87.6901H122.934C122.731 87.6901 122.545 87.8851 122.545 88.1574C122.545 88.391 122.731 88.587 122.934 88.587H123.02V89.7171H120.818V94.357H119.852L119.835 82.7766H120.361C120.715 82.7766 121.004 82.4255 121.004 82.0362C121.004 81.6079 120.714 81.2958 120.361 81.2958H119.819L119.768 70.1836H119.954C120.258 70.1836 120.529 69.9105 120.529 69.5593C120.529 69.1696 120.258 68.8965 119.954 68.8965H119.75L119.716 59.8903H119.954C120.225 59.8903 120.462 59.6177 120.462 59.3055C120.462 59.0324 120.292 58.7983 120.072 58.7602V56.9654L120.09 56.8878C120.072 56.8488 120.072 56.8102 120.072 56.7703V56.0304H120.276C120.428 56.0304 120.529 55.9129 120.529 55.7568C120.529 55.6007 120.428 55.4451 120.276 55.4451H119.986C120.122 54.9769 120.308 54.0418 119.954 53.1063C119.785 52.6771 119.445 52.2475 119.058 51.8972C118.684 51.5075 118.26 51.234 117.921 51.0003C117.939 50.9618 117.956 50.8833 117.956 50.7662C117.956 50.6882 117.956 50.5725 117.921 50.4541C117.853 50.2985 117.769 50.1819 117.651 50.1034C117.549 50.0258 117.447 49.9482 117.38 49.9088L117.363 49.6751C117.38 49.6751 117.412 49.6365 117.412 49.5966C117.431 49.5966 117.447 49.5576 117.447 49.5186C117.447 49.48 117.431 49.4401 117.412 49.4015C117.396 49.3625 117.38 49.3235 117.345 49.3235V49.1288C117.363 49.1288 117.38 49.0903 117.38 49.0903C117.396 49.0504 117.412 49.0114 117.412 48.9719C117.412 48.9719 117.396 48.9333 117.38 48.8939C117.38 48.8558 117.345 48.8557 117.328 48.8557V48.6607L117.277 47.218C117.277 47.218 117.261 47.1789 117.245 47.1789C117.227 47.1789 117.21 47.218 117.21 47.218L117.159 48.6607L117.141 48.8557C117.125 48.8557 117.109 48.8558 117.109 48.8939C117.074 48.9333 117.074 48.9719 117.074 48.9719C117.074 49.0114 117.074 49.0504 117.09 49.0903C117.109 49.0903 117.109 49.1288 117.141 49.1288V49.3235C117.109 49.3235 117.074 49.3625 117.074 49.4015C117.041 49.4401 117.041 49.48 117.041 49.5186C117.041 49.5576 117.041 49.5966 117.074 49.5966C117.074 49.6365 117.09 49.6751 117.109 49.6751V49.9088C117.024 49.9482 116.921 50.0262 116.82 50.1034C116.701 50.1819 116.617 50.298 116.567 50.4541C116.532 50.5725 116.515 50.6882 116.515 50.7662C116.515 50.8837 116.532 50.9618 116.549 51.0003C116.211 51.234 115.787 51.5075 115.414 51.8972C115.042 52.2475 114.703 52.6767 114.533 53.1063C114.162 54.0418 114.347 54.9769 114.482 55.4451H114.246C114.094 55.4451 113.991 55.6003 113.991 55.7568C113.991 55.9133 114.094 56.0304 114.246 56.0304H114.45V58.7602C114.23 58.7983 114.06 59.0324 114.06 59.3055C114.06 59.6177 114.296 59.8903 114.567 59.8903H114.804L114.772 68.8965H114.567C114.263 68.8965 113.991 69.1696 113.991 69.5593C113.991 69.9105 114.263 70.1836 114.567 70.1836H114.753L114.703 81.2958H114.162C113.805 81.2958 113.518 81.6083 113.518 82.0362C113.518 82.4259 113.805 82.7766 114.162 82.7766H114.703L114.668 102.857H112.841V101.726H113.026C113.247 101.726 113.416 101.531 113.416 101.297C113.416 101.024 113.247 100.829 113.026 100.829H112.825C113.213 99.8153 114.195 96.5406 112.925 93.226C112.433 91.8999 111.417 90.6917 110.282 89.6005C109.182 88.5466 107.963 87.651 106.946 86.9873C106.997 86.8317 107.049 86.5967 107.049 86.3639C107.065 86.0514 107.032 85.7011 106.913 85.35C106.76 84.9988 106.472 84.6477 106.167 84.3754C105.862 84.1023 105.558 83.8678 105.32 83.7117L105.286 83.1278C105.354 83.0498 105.405 83.0103 105.439 82.8932C105.49 82.8152 105.524 82.6982 105.524 82.5824C105.524 82.4641 105.49 82.347 105.422 82.2304C105.388 82.1524 105.32 82.0739 105.254 82.0353L105.219 81.4891C105.27 81.4505 105.32 81.3725 105.338 81.3335C105.389 81.2554 105.389 81.1778 105.389 81.0612C105.389 80.9832 105.371 80.8653 105.32 80.7881C105.286 80.7101 105.254 80.6715 105.185 80.6325L105.169 80.0477L105 75.837C105 75.7975 104.965 75.759 104.913 75.7195C104.88 75.7195 104.846 75.759 104.846 75.837L104.677 80.0477L104.642 80.6325C104.592 80.672 104.542 80.7105 104.508 80.7881C104.473 80.8653 104.439 80.9832 104.439 81.0612C104.439 81.1778 104.456 81.2554 104.508 81.3335C104.525 81.3729 104.577 81.451 104.609 81.4891L104.592 82.0353C104.508 82.0739 104.456 82.1528 104.406 82.2304C104.356 82.347 104.321 82.4641 104.321 82.5824C104.321 82.6982 104.337 82.8152 104.406 82.8932C104.44 83.0107 104.473 83.0498 104.542 83.1278L104.525 83.7117C104.287 83.8673 103.965 84.1023 103.678 84.3754C103.356 84.6477 103.068 84.9988 102.931 85.35C102.814 85.7011 102.78 86.0514 102.78 86.3639C102.78 86.5967 102.847 86.8312 102.882 86.9873C101.883 87.651 100.647 88.5466 99.5454 89.6005C98.41 90.6912 97.4114 91.8994 96.9201 93.226C95.6499 96.5406 96.6147 99.8153 97.0203 100.829H96.8017C96.5815 100.829 96.4124 101.024 96.4124 101.297C96.4124 101.53 96.5815 101.726 96.8017 101.726H96.8858V102.857C95.0745 99.2503 88.9495 98.7163 86.8971 103.697L86.87 98.1587H87.0703C87.3963 98.1587 87.6637 97.8444 87.6637 97.4704C87.6637 97.0956 87.3967 96.7861 87.0703 96.7861H86.8601L86.8121 87.2556H87.0703C87.3579 87.2556 87.5971 86.9851 87.5971 86.6493C87.5971 86.3574 87.4196 86.1149 87.1857 86.0544V83.2005H87.415C87.5597 83.2005 87.6835 83.0568 87.6835 82.881C87.6835 82.7104 87.5597 82.5719 87.415 82.5719H87.1042C87.2532 82.0599 87.4447 81.0796 87.0616 80.0819C86.8792 79.6185 86.5261 79.1784 86.114 78.7926C85.7213 78.4182 85.2807 78.0982 84.9273 77.8672C84.9413 77.8014 84.9558 77.7243 84.9607 77.63C84.9649 77.5143 84.9558 77.3928 84.9078 77.2731C84.8598 77.1403 84.7551 77.0189 84.6393 76.9194C84.535 76.826 84.4196 76.7488 84.3381 76.694L84.3331 76.4784C84.3525 76.4569 84.3719 76.4288 84.3815 76.4012C84.4001 76.3635 84.41 76.3249 84.41 76.2864C84.41 76.2408 84.4001 76.1921 84.3815 76.1597C84.362 76.1263 84.3426 76.104 84.314 76.0816L84.3045 75.8949C84.3236 75.8778 84.3381 75.8563 84.348 75.8282C84.3621 75.8068 84.372 75.7734 84.372 75.7401C84.372 75.7077 84.3624 75.6691 84.343 75.6415C84.3335 75.6191 84.3144 75.5968 84.295 75.5749L84.2859 75.3763L84.2287 73.8678C84.2287 73.8507 84.2192 73.8345 84.1998 73.8345C84.1804 73.8345 84.1709 73.8454 84.1663 73.8678L84.1092 75.3763L84.1038 75.5749C84.0802 75.5972 84.0616 75.6196 84.0509 75.6415C84.033 75.6691 84.0273 75.7072 84.0273 75.7401C84.0273 75.7734 84.033 75.8068 84.0467 75.8282C84.0558 75.8563 84.0753 75.8778 84.0844 75.8949L84.0802 76.0816C84.0562 76.104 84.0273 76.1263 84.0174 76.1597C83.9938 76.1921 83.9842 76.2412 83.9842 76.2864C83.9842 76.3249 83.9938 76.3635 84.0132 76.4012C84.0223 76.4288 84.0467 76.4569 84.0661 76.4784L84.0562 76.694C83.9701 76.7488 83.8551 76.826 83.755 76.9194C83.6396 77.0189 83.5348 77.1403 83.4918 77.2731C83.4388 77.3928 83.4293 77.5147 83.4347 77.63C83.4347 77.7243 83.4533 77.8014 83.4727 77.8672C83.114 78.0982 82.6737 78.4186 82.2757 78.7926C81.8731 79.1788 81.5102 79.6189 81.3331 80.0819C80.9549 81.0792 81.1369 82.0599 81.2901 82.5719H81.0314C80.8783 82.5719 80.7542 82.7104 80.7542 82.881C80.7542 83.0563 80.878 83.2005 81.0314 83.2005H81.2417V86.0544C81.0116 86.1202 80.8395 86.3626 80.8395 86.6493C80.8395 86.9851 81.0844 87.2556 81.3754 87.2556H81.624L81.5768 96.7861H81.3754C81.0452 96.7861 80.7725 97.0952 80.7725 97.4704C80.7725 97.8448 81.0452 98.1587 81.3754 98.1587H81.5768L81.5285 106.639C79.1652 101.008 74.323 97.0232 68.6299 96.5498V95.8852C68.6299 95.7782 68.5933 95.6739 68.5267 95.5976C68.4597 95.5205 68.3717 95.4788 68.2769 95.4788H67.9866L67.7589 88.6589C69.0451 88.0416 70.0425 86.7177 70.3011 85.0234C70.6073 83.012 69.7889 81.0761 68.3732 80.0608C68.9784 81.0696 69.2499 82.3426 69.0515 83.6503C68.6512 86.2894 66.4605 88.0557 64.1712 87.5932C63.6224 87.4827 63.12 87.2552 62.6725 86.9373C63.2944 87.9724 64.2592 88.7312 65.4215 88.9657C66.1429 89.1122 66.8444 89.0153 67.4927 88.761L67.26 95.4788H66.9766C66.7774 95.4788 66.6133 95.6673 66.6133 95.8975V96.5362C60.4734 96.9325 55.2934 101.411 53.0794 107.661C52.7702 107.253 52.4072 106.866 52.0241 106.497C51.2806 105.785 50.4572 105.179 49.7702 104.731C49.8041 104.626 49.8391 104.467 49.8391 104.31C49.8498 104.1 49.8277 103.863 49.7477 103.625C49.6441 103.388 49.4499 103.151 49.2438 102.966C49.0378 102.781 48.8321 102.624 48.6714 102.518L48.6481 102.123C48.6938 102.071 48.7281 102.045 48.7517 101.965C48.786 101.913 48.8089 101.833 48.8089 101.755C48.8089 101.675 48.7856 101.596 48.7392 101.517C48.7171 101.465 48.6706 101.412 48.6257 101.385L48.6021 101.016C48.6363 100.99 48.6706 100.937 48.6828 100.911C48.7171 100.858 48.7171 100.806 48.7171 100.727C48.7171 100.674 48.7049 100.594 48.6706 100.543C48.6474 100.49 48.6257 100.464 48.5788 100.437L48.5682 100.042L48.4539 97.1969C48.4539 97.1701 48.4303 97.1447 48.3956 97.1171C48.3732 97.1171 48.3507 97.1447 48.3507 97.1969L48.2361 100.042L48.2124 100.437C48.1785 100.464 48.145 100.49 48.1218 100.543C48.0982 100.594 48.0757 100.674 48.0757 100.727C48.0757 100.806 48.0868 100.858 48.1218 100.911C48.1332 100.938 48.1683 100.991 48.1904 101.016L48.1789 101.385C48.1222 101.412 48.0871 101.465 48.0532 101.517C48.0194 101.596 47.9961 101.675 47.9961 101.755C47.9961 101.833 48.0072 101.913 48.0532 101.965C48.0761 102.045 48.0986 102.071 48.1454 102.123L48.1336 102.518C47.9729 102.624 47.7558 102.782 47.5619 102.966C47.3437 103.151 47.1491 103.388 47.0569 103.625C46.9773 103.862 46.9545 104.099 46.9545 104.31C46.9545 104.467 46.9998 104.626 47.0234 104.731C46.3485 105.179 45.5133 105.785 44.7691 106.497C44.0013 107.235 43.3268 108.051 42.9947 108.947C42.7829 109.499 42.6645 110.049 42.6077 110.575C40.3801 109.579 38.496 108.316 36.9881 106.839C37.0506 106.698 37.0959 106.546 37.0959 106.374C37.0959 105.956 36.8739 105.595 36.557 105.436L36.3315 101.384H36.0676L35.841 105.436C35.5241 105.595 35.3055 105.956 35.3055 106.374C35.3055 106.546 35.3474 106.697 35.4121 106.839C33.7657 108.442 31.6516 109.823 29.171 110.848C25.3598 112.418 22.8164 115.23 22.8164 118.443C22.8164 119.362 23.0266 120.253 23.4124 121.086H21.9225V113.69H22.0109C22.2641 113.69 22.4702 113.455 22.4702 113.162V112.863C22.4702 112.574 22.2641 112.335 22.0109 112.335H21.4103C21.435 112.139 21.4521 111.945 21.4521 111.738C21.4521 110.327 20.8032 109.088 19.8308 108.398C19.226 107.971 18.7107 107.416 18.3043 106.761C18.3817 106.678 18.427 106.559 18.427 106.429C18.427 106.246 18.3321 106.084 18.192 106.017L18.0915 104.232H17.976L17.877 106.017C17.7369 106.084 17.6409 106.246 17.6409 106.429C17.6409 106.559 17.6881 106.677 17.7647 106.761C17.3541 107.413 16.8373 107.972 16.2405 108.398C15.2666 109.088 14.6165 110.327 14.6165 111.738C14.6165 111.946 14.6329 112.139 14.6618 112.335H14.0399C13.7874 112.335 13.5836 112.574 13.5836 112.863V113.162C13.5836 113.455 13.7874 113.69 14.0399 113.69H14.1442V121.445C13.6285 119.393 12.2856 117.75 10.5489 117.024C10.5512 116.99 10.5573 116.959 10.5573 116.925C10.5573 115.938 10.0104 115.108 9.24752 114.789L8.96835 113.815C9.02358 113.726 9.06128 113.624 9.06128 113.509C9.06128 113.285 8.94168 113.097 8.77677 113.009L8.6031 109.935C8.6031 109.922 8.58902 109.911 8.57416 109.911C8.56464 109.911 8.55131 109.921 8.55131 109.935L8.37764 113.009C8.21387 113.097 8.09541 113.285 8.09541 113.509C8.09541 113.624 8.13198 113.725 8.1834 113.813L7.90614 114.789C7.14404 115.108 6.59826 115.94 6.59826 116.925C6.59826 116.958 6.60512 116.99 6.60512 117.024C4.37633 117.955 2.77329 120.393 2.77329 123.283C2.77329 123.975 2.88869 124.631 3.05894 125.26H1.05486V126.271H0.850342V164.04H208V66.2706ZM15.9007 121.155H14.6412V117.062C14.6412 116.019 14.9063 115.143 15.2678 114.88C15.6334 115.143 15.9007 116.019 15.9007 117.062V121.155ZM19.6286 121.086H18.8577V121.155H16.4431V116.627C16.4431 115.477 17.1187 114.508 18.0343 114.212C18.9548 114.508 19.629 115.477 19.629 116.627L19.6286 121.086ZM21.4202 121.086H20.161V117.062C20.161 116.019 20.4261 115.143 20.7917 114.88C21.1539 115.143 21.4198 116.019 21.4198 117.062V121.086H21.4202ZM85.1954 84.919V86.0373H83.2324V84.919C83.2324 84.919 83.2229 84.8309 83.2945 84.7204C83.3714 84.61 83.3379 84.5227 83.309 84.4123C83.0892 83.7069 84.0993 83.7411 84.2188 83.2005C84.3335 83.7406 85.3435 83.7065 85.1287 84.4123C85.0899 84.5227 85.0609 84.61 85.1375 84.7204C85.214 84.8309 85.1954 84.919 85.1954 84.919ZM116.144 58.4831V56.4183C116.144 55.6345 116.604 54.9756 117.227 54.7735C117.854 54.9756 118.313 55.6345 118.313 56.4183V58.4362L118.314 58.4831H116.144ZM145.65 87.5252H144.39V84.3101C144.39 83.2672 144.655 82.3922 145.017 82.1283C145.382 82.3922 145.65 83.2672 145.65 84.3101V87.5252ZM146.126 87.5213V84.4885C146.126 83.3378 146.801 82.3694 147.717 82.073C148.637 82.3694 149.311 83.3378 149.311 84.4885V87.452L149.313 87.5213H146.126ZM151.169 87.5349H149.91V84.3106C149.91 83.2676 150.175 82.3926 150.54 82.1287C150.903 82.3926 151.169 83.2676 151.169 84.3106V87.5349H151.169Z" fill="#00133F"/>
</svg>
