<svg width="165" height="97" viewBox="0 0 165 97" fill="none" xmlns="http://www.w3.org/2000/svg">
<path opacity="0.3" fill-rule="evenodd" clip-rule="evenodd" d="M165 54.9917C164.746 54.8632 164.494 54.7348 164.234 54.6082C157.9 51.5286 154.759 47.3437 153.221 44.271C154.696 43.492 155.727 41.7154 155.727 39.6454C155.727 37.1792 154.264 35.1296 152.331 34.6885L152.262 32.4623C152.796 32.181 153.17 31.5395 153.17 30.7904C153.17 29.9946 152.746 29.3247 152.158 29.0755L151.994 23.7339C153.866 24.22 155.861 24.1368 157.803 23.345C160.721 22.1536 162.942 19.6396 164.187 16.541C163.148 17.6167 161.93 18.4709 160.556 19.0321C154.804 21.3768 148.561 17.6364 146.619 10.681C145.657 7.23431 145.925 3.6537 147.14 0.631378C143.831 4.05982 142.386 9.69069 143.867 14.9939C145.095 19.4002 148.055 22.5098 151.52 23.6051L151.25 29.043C150.618 29.2605 150.152 29.9563 150.152 30.7904C150.152 31.5487 150.535 32.1985 151.08 32.4736L150.971 34.652C148.942 34.995 147.378 37.0963 147.378 39.6454C147.378 41.8055 148.503 43.6431 150.08 44.3637C148.526 47.4273 145.384 51.5599 139.114 54.6082C127.64 60.1839 122.573 67.5108 121.004 76.2902V75.4477C121.152 75.3182 121.273 75.1234 121.273 74.8639C121.273 74.5067 121.059 74.182 120.79 74.1177V70.5145H121.059C121.232 70.5145 121.38 70.3208 121.38 70.1263C121.38 69.8982 121.232 69.7373 121.059 69.7373H120.683C120.871 69.0875 121.086 67.8538 120.629 66.5887C120.414 66.0042 119.985 65.4521 119.501 64.9668C119.019 64.4793 118.495 64.0896 118.079 63.7981C118.093 63.7332 118.105 63.6029 118.105 63.5051C118.12 63.3759 118.105 63.2136 118.053 63.0512C117.986 62.8895 117.864 62.7268 117.73 62.5973C117.596 62.5002 117.462 62.37 117.368 62.305L117.355 62.0456C117.381 62.0127 117.409 61.9806 117.422 61.9478C117.435 61.9149 117.462 61.85 117.462 61.8183C117.462 61.7533 117.435 61.688 117.409 61.6566C117.395 61.5909 117.368 61.5588 117.328 61.5588V61.2987C117.355 61.2987 117.368 61.2666 117.381 61.2337C117.395 61.2016 117.409 61.168 117.409 61.1045C117.409 61.0717 117.395 61.0389 117.381 61.0068C117.355 60.9739 117.342 60.9411 117.314 60.909L117.301 60.6495L117.234 58.7675C117.234 58.7354 117.219 58.7018 117.194 58.7018C117.18 58.7018 117.166 58.7354 117.166 58.7675L117.087 60.6495V60.909C117.059 60.9411 117.032 60.9739 117.018 61.0068C117.005 61.0389 116.992 61.0717 116.992 61.1045C116.992 61.168 117.005 61.2016 117.018 61.2337C117.032 61.2666 117.046 61.2987 117.059 61.2987V61.5588C117.032 61.5588 117.005 61.5909 116.979 61.6566C116.952 61.688 116.939 61.7537 116.939 61.8183C116.939 61.8504 116.952 61.9153 116.979 61.9478C116.979 61.9806 117.005 62.0127 117.032 62.0456V62.305C116.925 62.37 116.79 62.5002 116.67 62.5973C116.522 62.7268 116.415 62.8895 116.348 63.0512C116.281 63.2136 116.281 63.3442 116.281 63.5051C116.281 63.6029 116.307 63.7332 116.334 63.7981C115.892 64.0896 115.369 64.4793 114.886 64.9668C114.402 65.4521 113.973 66.0046 113.759 66.5887C113.302 67.8538 113.529 69.0875 113.704 69.7373H113.395C113.222 69.7373 113.074 69.8982 113.074 70.1263C113.074 70.3208 113.222 70.5145 113.395 70.5145H113.651V74.1177C113.383 74.182 113.167 74.5067 113.167 74.8639C113.167 75.1234 113.302 75.3178 113.463 75.4477V78.369H112.134V74.507H110.296V73.5664H110.457C110.618 73.5664 110.753 73.4033 110.753 73.2088C110.753 72.9822 110.618 72.8198 110.457 72.8198H110.296C110.592 71.9759 111.369 69.2495 110.364 66.4913C109.974 65.3883 109.183 64.3819 108.283 63.4737C107.398 62.5973 106.431 61.8504 105.641 61.2987C105.68 61.1684 105.707 60.9743 105.72 60.7469C105.733 60.5196 105.707 60.2281 105.599 59.9358C105.492 59.6436 105.252 59.3513 105.01 59.124C104.768 58.8966 104.526 58.7022 104.337 58.5723L104.311 58.0862C104.365 58.0205 104.419 57.9884 104.446 57.891C104.472 57.8261 104.499 57.7286 104.499 57.6309C104.499 57.5331 104.472 57.4364 104.432 57.3393C104.392 57.2744 104.337 57.2098 104.285 57.1769L104.271 56.723C104.311 56.6902 104.337 56.6252 104.365 56.5928C104.392 56.5278 104.406 56.4632 104.406 56.3654C104.406 56.3012 104.392 56.2038 104.351 56.1381C104.325 56.0739 104.285 56.0411 104.244 56.0089L104.231 55.5222L104.096 52.0175C104.096 51.9847 104.07 51.9518 104.029 51.9197C103.989 51.9197 103.963 51.9518 103.963 52.0175L103.829 55.5222L103.814 56.0089C103.775 56.0411 103.721 56.0739 103.694 56.1381C103.667 56.2038 103.64 56.3012 103.64 56.3654C103.64 56.4632 103.667 56.5278 103.694 56.5928C103.721 56.6256 103.748 56.6906 103.788 56.723L103.775 57.1769C103.707 57.2098 103.667 57.2747 103.613 57.3393C103.587 57.4364 103.559 57.5331 103.559 57.6309C103.559 57.7286 103.587 57.8261 103.613 57.891C103.641 57.9888 103.682 58.0205 103.734 58.0862L103.721 58.5723C103.533 58.7018 103.277 58.8966 103.05 59.124C102.794 59.3513 102.566 59.6436 102.46 59.9358C102.352 60.2281 102.326 60.5196 102.326 60.7469C102.352 60.9743 102.379 61.168 102.418 61.2987C101.627 61.8504 100.648 62.5973 99.7754 63.4737C98.8762 64.3816 98.0843 65.3879 97.6824 66.4913C96.6899 69.2495 97.4543 71.9759 97.763 72.8198H97.6015C97.441 72.8198 97.2931 72.9822 97.2931 73.2088C97.2931 73.4033 97.441 73.5664 97.6015 73.5664H97.67V74.507H95.925V78.369H95.1597L95.1458 68.7302H95.5629C95.8432 68.7302 96.0725 68.438 96.0725 68.1139C96.0725 67.7574 95.8429 67.4977 95.5629 67.4977H95.1332L95.093 58.2486H95.2406C95.4814 58.2486 95.6959 58.0213 95.6959 57.729C95.6959 57.4046 95.4814 57.1773 95.2406 57.1773H95.0791L95.0517 49.6812H95.2406C95.4551 49.6812 95.6428 49.4542 95.6428 49.1944C95.6428 48.9671 95.5079 48.7722 95.3338 48.7405V47.2467L95.3483 47.1821C95.3338 47.1496 95.3338 47.1175 95.3338 47.0843V46.4684H95.4953C95.6163 46.4684 95.6959 46.3706 95.6959 46.2407C95.6959 46.1108 95.6163 45.9812 95.4953 45.9812H95.2662C95.3736 45.5915 95.5209 44.8132 95.2406 44.0346C95.1066 43.6774 94.8374 43.3198 94.5302 43.0282C94.2339 42.7038 93.8987 42.4762 93.6298 42.2817C93.6437 42.2496 93.6573 42.1843 93.6573 42.0868C93.6573 42.0219 93.6573 41.9256 93.6298 41.827C93.5761 41.6975 93.5097 41.6004 93.4156 41.5351C93.335 41.4706 93.2541 41.406 93.201 41.3731L93.1874 41.1786C93.201 41.1786 93.2267 41.1465 93.2267 41.1133C93.2414 41.1133 93.2541 41.0809 93.2541 41.0484C93.2541 41.0163 93.2414 40.9831 93.2267 40.951C93.214 40.9185 93.201 40.886 93.1735 40.886V40.724C93.1874 40.724 93.201 40.6919 93.201 40.6919C93.214 40.6587 93.2267 40.6262 93.2267 40.5934C93.2267 40.5934 93.214 40.5613 93.201 40.5284C93.201 40.4967 93.1735 40.4967 93.16 40.4967V40.3343L93.1198 39.1335C93.1198 39.1335 93.1068 39.101 93.0942 39.101C93.0797 39.101 93.0667 39.1335 93.0667 39.1335L93.0257 40.3343L93.0121 40.4967C92.9991 40.4967 92.9865 40.4967 92.9865 40.5284C92.959 40.5613 92.959 40.5934 92.959 40.5934C92.959 40.6262 92.959 40.6587 92.9717 40.6919C92.9865 40.6919 92.9865 40.724 93.0121 40.724V40.886C92.9865 40.886 92.959 40.9185 92.959 40.951C92.9324 40.9831 92.9324 41.0163 92.9324 41.0484C92.9324 41.0809 92.9324 41.1133 92.959 41.1133C92.959 41.1465 92.9717 41.1786 92.9865 41.1786V41.3731C92.9189 41.406 92.8377 41.4709 92.7574 41.5351C92.6633 41.6004 92.5969 41.6971 92.5567 41.827C92.5293 41.9256 92.5157 42.0219 92.5157 42.0868C92.5157 42.1846 92.5293 42.2496 92.5429 42.2817C92.2746 42.4762 91.939 42.7038 91.6436 43.0282C91.3488 43.3198 91.0799 43.677 90.9451 44.0346C90.6511 44.8132 90.7984 45.5915 90.9049 45.9812H90.7178C90.5974 45.9812 90.5163 46.1104 90.5163 46.2407C90.5163 46.3709 90.5974 46.4684 90.7178 46.4684H90.8793V48.7405C90.7052 48.7722 90.5703 48.9671 90.5703 49.1944C90.5703 49.4542 90.758 49.6812 90.9725 49.6812H91.1602L91.1349 57.1773H90.9725C90.7314 57.1773 90.5163 57.4046 90.5163 57.729C90.5163 58.0213 90.7314 58.2486 90.9725 58.2486H91.1201L91.0799 67.4977H90.6511C90.3684 67.4977 90.1412 67.7578 90.1412 68.1139C90.1412 68.4383 90.3687 68.7302 90.6511 68.7302H91.0799L91.0525 85.4437H89.6046V84.5023H89.7516C89.9266 84.5023 90.0606 84.3399 90.0606 84.1451C90.0606 83.9185 89.9266 83.7561 89.7516 83.7561H89.592C89.8995 82.9121 90.6777 80.1865 89.6713 77.4276C89.2818 76.3238 88.4764 75.3182 87.5771 74.41C86.7057 73.5328 85.7397 72.7874 84.9343 72.2349C84.9745 72.1054 85.0155 71.9098 85.0155 71.7161C85.0282 71.4559 85.0019 71.1644 84.9081 70.8721C84.7868 70.5798 84.5587 70.2875 84.317 70.061C84.0753 69.8336 83.8341 69.6384 83.6461 69.5085L83.619 69.0225C83.6727 68.9576 83.7131 68.9247 83.74 68.8273C83.7804 68.7623 83.8076 68.6649 83.8076 68.5686C83.8076 68.4701 83.7804 68.3726 83.7264 68.2756C83.6999 68.2106 83.6459 68.1453 83.5933 68.1132L83.5659 67.6586C83.606 67.6265 83.6462 67.5615 83.66 67.529C83.7002 67.4641 83.7002 67.3995 83.7002 67.3024C83.7002 67.2375 83.6866 67.1393 83.6461 67.0751C83.619 67.0102 83.5933 66.9781 83.5387 66.9456L83.526 66.4588L83.3921 62.9541C83.3921 62.9213 83.3646 62.8892 83.3236 62.8563C83.297 62.8563 83.2705 62.8892 83.2705 62.9541L83.1365 66.4588L83.109 66.9456C83.0689 66.9784 83.0297 67.0105 83.0022 67.0751C82.9747 67.1393 82.9482 67.2375 82.9482 67.3024C82.9482 67.3995 82.9612 67.4641 83.0022 67.529C83.0158 67.5619 83.0568 67.6268 83.0825 67.6586L83.0689 68.1132C83.0022 68.1453 82.9615 68.211 82.9219 68.2756C82.8818 68.3726 82.8543 68.4701 82.8543 68.5686C82.8543 68.6649 82.8673 68.7623 82.9219 68.8273C82.9485 68.9251 82.975 68.9576 83.0296 69.0225L83.0158 69.5085C82.8272 69.6381 82.5725 69.8336 82.3453 70.061C82.0897 70.2875 81.8616 70.5798 81.7532 70.8721C81.66 71.1644 81.6337 71.4559 81.6337 71.7161C81.6337 71.9098 81.6868 72.105 81.7143 72.2349C80.9225 72.7874 79.9436 73.5328 79.0706 74.41C78.1711 75.3178 77.3798 76.3234 76.9906 77.4276C75.9842 80.1865 76.7486 82.9121 77.0699 83.7561H76.8967C76.7223 83.7561 76.5883 83.9185 76.5883 84.1451C76.5883 84.3396 76.7223 84.5023 76.8967 84.5023H76.9634V85.4437C75.5283 82.4418 70.6754 81.9974 69.0492 86.1428L69.0278 81.5333H69.1865C69.4448 81.5333 69.6567 81.2716 69.6567 80.9604C69.6567 80.6484 69.4451 80.3908 69.1865 80.3908H69.02L68.9819 72.4582H69.1865C69.4144 72.4582 69.6039 72.2331 69.6039 71.9536C69.6039 71.7106 69.4632 71.5088 69.278 71.4585V69.0831H69.4596C69.5743 69.0831 69.6724 68.9634 69.6724 68.8171C69.6724 68.6751 69.5743 68.5598 69.4596 68.5598H69.2134C69.3314 68.1337 69.4832 67.3178 69.1796 66.4873C69.0351 66.1016 68.7553 65.7353 68.4288 65.4142C68.1177 65.1026 67.7686 64.8362 67.4885 64.6439C67.4997 64.5892 67.5112 64.525 67.5151 64.4465C67.5184 64.3502 67.5112 64.2491 67.4732 64.1495C67.4351 64.0389 67.3521 63.9379 67.2604 63.855C67.1777 63.7773 67.0863 63.7131 67.0217 63.6675L67.0178 63.488C67.0332 63.4701 67.0486 63.4467 67.0561 63.4237C67.0709 63.3923 67.0788 63.3603 67.0788 63.3281C67.0788 63.2902 67.0709 63.2497 67.0561 63.2227C67.0407 63.195 67.0253 63.1763 67.0027 63.1577L66.9952 63.0023C67.0103 62.9881 67.0217 62.9702 67.0296 62.9468C67.0407 62.929 67.0486 62.9012 67.0486 62.8735C67.0486 62.8465 67.041 62.8144 67.0257 62.7914C67.0181 62.7728 67.003 62.7542 66.9876 62.7359L66.9804 62.5707L66.9351 61.3151C66.9351 61.3008 66.9276 61.2873 66.9122 61.2873C66.8968 61.2873 66.8892 61.2965 66.8856 61.3151L66.8404 62.5707L66.8361 62.7359C66.8174 62.7546 66.8027 62.7732 66.7942 62.7914C66.78 62.8144 66.7755 62.8461 66.7755 62.8735C66.7755 62.9012 66.78 62.929 66.7909 62.9468C66.7981 62.9702 66.8135 62.9881 66.8208 63.0023L66.8174 63.1577C66.7984 63.1763 66.7755 63.195 66.7676 63.2227C66.7489 63.2497 66.7414 63.2906 66.7414 63.3281C66.7414 63.3603 66.7489 63.3923 66.7643 63.4237C66.7716 63.4467 66.7909 63.4701 66.8063 63.488L66.7984 63.6675C66.7302 63.7131 66.6391 63.7773 66.5597 63.855C66.4683 63.9379 66.3853 64.0389 66.3512 64.1495C66.3093 64.2491 66.3017 64.3505 66.306 64.4465C66.306 64.525 66.3207 64.5892 66.3361 64.6439C66.0519 64.8362 65.703 65.1029 65.3877 65.4142C65.0687 65.7356 64.7812 66.102 64.6409 66.4873C64.3412 67.3174 64.4855 68.1337 64.6068 68.5598H64.4019C64.2806 68.5598 64.1822 68.6751 64.1822 68.8171C64.1822 68.963 64.2803 69.0831 64.4019 69.0831H64.5684V71.4585C64.3862 71.5132 64.2498 71.715 64.2498 71.9536C64.2498 72.2331 64.4438 72.4582 64.6744 72.4582H64.8714L64.834 80.3908H64.6744C64.4127 80.3908 64.1967 80.648 64.1967 80.9604C64.1967 81.272 64.4127 81.5333 64.6744 81.5333H64.834L64.7957 88.5916C62.9233 83.905 59.0867 80.5882 54.576 80.1941V79.641C54.576 79.5519 54.5471 79.4651 54.4943 79.4016C54.4412 79.3374 54.3714 79.3027 54.2963 79.3027H54.0664L53.8859 73.6262C54.905 73.1125 55.6953 72.0105 55.9002 70.6003C56.1428 68.9262 55.4943 67.3148 54.3727 66.4698C54.8521 67.3094 55.0673 68.369 54.9101 69.4574C54.5929 71.654 52.8572 73.1242 51.0434 72.7392C50.6085 72.6473 50.2105 72.4579 49.8559 72.1933C50.3487 73.0548 51.1131 73.6864 52.034 73.8816C52.6056 74.0035 53.1614 73.9229 53.675 73.7113L53.4906 79.3027H53.2661C53.1083 79.3027 52.9782 79.4596 52.9782 79.6512V80.1828C48.1136 80.5127 44.0094 84.2407 42.2553 89.4425C42.0102 89.1031 41.7227 88.7805 41.4191 88.4733C40.8301 87.8811 40.1777 87.3765 39.6333 87.0039C39.6602 86.9164 39.6879 86.7843 39.6879 86.6533C39.6964 86.4781 39.6789 86.2807 39.6155 86.083C39.5334 85.8856 39.3795 85.6882 39.2163 85.5349C39.053 85.3809 38.8901 85.2499 38.7627 85.1616L38.7443 84.8333C38.7805 84.7898 38.8077 84.7676 38.8264 84.7015C38.8536 84.6581 38.8717 84.5917 38.8717 84.5267C38.8717 84.4603 38.8533 84.3943 38.8164 84.3286C38.7989 84.2852 38.7621 84.2411 38.7265 84.2188L38.7078 83.9116C38.735 83.89 38.7621 83.8459 38.7718 83.824C38.7989 83.7798 38.799 83.7364 38.799 83.6707C38.799 83.6266 38.7893 83.5602 38.7621 83.5175C38.7437 83.4733 38.7265 83.4518 38.6894 83.4292L38.681 83.1008L38.5904 80.7327C38.5904 80.7104 38.5717 80.6893 38.5443 80.6663C38.5265 80.6663 38.5086 80.6893 38.5086 80.7327L38.4178 83.1008L38.3991 83.4292C38.3723 83.4522 38.3457 83.4733 38.3273 83.5175C38.3086 83.5602 38.2908 83.6266 38.2908 83.6707C38.2908 83.7364 38.2995 83.7798 38.3273 83.824C38.3364 83.8462 38.3641 83.8904 38.3816 83.9116L38.3726 84.2188C38.3276 84.2411 38.2999 84.2852 38.273 84.3286C38.2461 84.3943 38.2277 84.4603 38.2277 84.5267C38.2277 84.5917 38.2365 84.6577 38.273 84.7015C38.2911 84.7679 38.3089 84.7898 38.346 84.8333L38.3367 85.1616C38.2093 85.2499 38.0373 85.3813 37.8837 85.5349C37.7108 85.6882 37.5566 85.8856 37.4836 86.083C37.4205 86.2804 37.4024 86.4778 37.4024 86.6533C37.4024 86.7843 37.4383 86.9164 37.457 87.0039C36.9223 87.3765 36.2606 87.8811 35.6709 88.4733C35.0626 89.0878 34.5282 89.7668 34.265 90.513C34.0973 90.972 34.0034 91.4296 33.9585 91.8678C32.1935 91.0385 30.7007 89.9872 29.506 88.7579C29.5555 88.6404 29.5914 88.5142 29.5914 88.3715C29.5914 88.0231 29.4155 87.7231 29.1644 87.5903L28.9858 84.2181H28.7767L28.5971 87.5903C28.3461 87.7228 28.1729 88.0231 28.1729 88.3715C28.1729 88.5142 28.206 88.6401 28.2573 88.7579C26.9528 90.0927 25.2778 91.2417 23.3125 92.0952C20.2928 93.4022 18.2776 95.7425 18.2776 98.4164C18.2776 99.1819 18.4442 99.923 18.7499 100.616H17.5694V94.4603H17.6394C17.8401 94.4603 18.0033 94.2651 18.0033 94.0214V93.7718C18.0033 93.5317 17.8401 93.3328 17.6394 93.3328H17.1635C17.1832 93.1697 17.1967 93.0085 17.1967 92.8355C17.1967 91.6617 16.6825 90.6305 15.9121 90.0562C15.433 89.7004 15.0247 89.2381 14.7027 88.693C14.764 88.624 14.7999 88.5248 14.7999 88.4171C14.7999 88.2646 14.7247 88.13 14.6137 88.0738L14.534 86.5887H14.4426L14.3641 88.0738C14.2531 88.13 14.177 88.2646 14.177 88.4171C14.177 88.5248 14.2145 88.6237 14.2751 88.693C13.9498 89.2359 13.5403 89.7015 13.0675 90.0562C12.2959 90.6305 11.7808 91.6617 11.7808 92.8355C11.7808 93.0088 11.7938 93.1697 11.8167 93.3328H11.3239C11.1239 93.3328 10.9624 93.5317 10.9624 93.7718V94.0214C10.9624 94.2651 11.1239 94.4603 11.3239 94.4603H11.4066V100.915C10.998 99.2071 9.93403 97.8395 8.55802 97.2353C8.55983 97.2075 8.56466 97.1813 8.56466 97.1532C8.56466 96.3314 8.13134 95.6407 7.52692 95.3751L7.30573 94.5647C7.34948 94.4906 7.37935 94.4056 7.37935 94.3096C7.37935 94.1235 7.2846 93.967 7.15394 93.8933L7.01634 91.3355C7.01634 91.3241 7.00517 91.3154 6.99341 91.3154C6.98586 91.3154 6.9753 91.3238 6.9753 91.3355L6.8377 93.8933C6.70795 93.9666 6.61409 94.1235 6.61409 94.3096C6.61409 94.4059 6.64307 94.4899 6.6838 94.5625L6.46412 95.3751C5.86031 95.6411 5.42788 96.3336 5.42788 97.1532C5.42788 97.1809 5.43332 97.2072 5.43332 97.2353C3.66743 98.0106 2.39733 100.04 2.39733 102.445C2.39733 103.021 2.48876 103.567 2.62365 104.091H1.0358V104.932H0.873764V136.369H165V54.9917ZM12.7983 100.674H11.8004V97.2674C11.8004 96.3993 12.0104 95.6703 12.2968 95.4513C12.5865 95.6703 12.7983 96.3993 12.7983 97.2674V100.674ZM15.7519 100.616H15.1412V100.674H13.228V96.9054C13.228 95.9476 13.7633 95.1416 14.4888 94.8949C15.2181 95.1416 15.7522 95.9476 15.7522 96.9054L15.7519 100.616ZM17.1714 100.616H16.1738V97.2674C16.1738 96.3993 16.3838 95.6703 16.6735 95.4513C16.9605 95.6703 17.1711 96.3993 17.1711 97.2674V100.616H17.1714ZM67.701 70.5134V71.4442H66.1457V70.5134C66.1457 70.5134 66.1382 70.4401 66.1949 70.3481C66.2559 70.2562 66.2293 70.1836 66.2064 70.0916C66.0323 69.5045 66.8325 69.533 66.9273 69.0831C67.0181 69.5326 67.8184 69.5042 67.6482 70.0916C67.6174 70.1836 67.5945 70.2562 67.6551 70.3481C67.7158 70.4401 67.701 70.5134 67.701 70.5134ZM92.2215 48.5099V46.7913C92.2215 46.1389 92.586 45.5905 93.08 45.4222C93.5767 45.5905 93.9403 46.1389 93.9403 46.7913V48.4708L93.9409 48.5099H92.2215ZM115.599 72.6826H114.601V70.0066C114.601 69.1385 114.811 68.4102 115.098 68.1906C115.387 68.4102 115.599 69.1385 115.599 70.0066V72.6826ZM115.976 72.6794V70.1551C115.976 69.1973 116.512 68.3913 117.237 68.1446C117.967 68.3913 118.501 69.1973 118.501 70.1551V72.6217L118.502 72.6794H115.976ZM119.972 72.6907H118.975V70.007C118.975 69.1389 119.185 68.4106 119.474 68.1909C119.761 68.4106 119.972 69.1389 119.972 70.007V72.6907H119.972Z" fill="#001732" fill-opacity="0.06"/>
</svg>
