<svg width="314" height="144" viewBox="0 0 314 144" fill="none" xmlns="http://www.w3.org/2000/svg">
<path opacity="0.3" fill-rule="evenodd" clip-rule="evenodd" d="M312.058 123.284C312.058 120.393 310.455 117.956 308.227 117.024C308.227 116.991 308.233 116.959 308.233 116.925C308.233 115.941 307.687 115.108 306.926 114.789L306.648 113.813C306.7 113.726 306.736 113.624 306.736 113.509C306.736 113.286 306.617 113.098 306.454 113.009L306.28 109.936C306.28 109.922 306.267 109.912 306.257 109.912C306.242 109.912 306.228 109.922 306.228 109.936L306.055 113.009C305.89 113.097 305.77 113.286 305.77 113.509C305.77 113.625 305.808 113.727 305.863 113.816L305.584 114.789C304.821 115.109 304.274 115.938 304.274 116.925C304.274 116.959 304.28 116.99 304.282 117.024C302.545 117.75 301.203 119.393 300.687 121.446V113.69H300.791C301.044 113.69 301.248 113.456 301.248 113.163V112.863C301.248 112.575 301.044 112.336 300.791 112.336H300.169C300.198 112.14 300.215 111.946 300.215 111.738C300.215 110.328 299.565 109.089 298.591 108.399C297.994 107.972 297.477 107.413 297.067 106.761C297.143 106.678 297.191 106.559 297.191 106.43C297.191 106.246 297.095 106.085 296.954 106.017L296.855 104.233H296.74L296.639 106.017C296.5 106.085 296.404 106.246 296.404 106.43C296.404 106.559 296.45 106.678 296.527 106.761C296.121 107.416 295.605 107.972 295 108.399C294.028 109.089 293.38 110.328 293.38 111.738C293.38 111.946 293.397 112.14 293.421 112.336H292.821C292.567 112.336 292.361 112.575 292.361 112.863V113.163C292.361 113.456 292.567 113.69 292.821 113.69H292.909V121.086H291.419C291.805 120.253 292.015 119.362 292.015 118.443C292.015 115.231 289.472 112.419 285.661 110.849C283.18 109.823 281.066 108.443 279.42 106.839C279.484 106.698 279.526 106.546 279.526 106.375C279.526 105.956 279.307 105.596 278.99 105.436L278.764 101.385H278.5L278.275 105.436C277.958 105.595 277.735 105.956 277.735 106.375C277.735 106.546 277.781 106.698 277.843 106.839C276.335 108.316 274.451 109.579 272.224 110.575C272.168 110.049 272.048 109.499 271.837 108.948C271.505 108.051 270.83 107.235 270.062 106.497C269.318 105.786 268.483 105.179 267.808 104.732C267.832 104.627 267.877 104.468 267.877 104.311C267.877 104.1 267.854 103.863 267.775 103.625C267.683 103.388 267.488 103.151 267.27 102.967C267.076 102.782 266.858 102.624 266.698 102.518L266.686 102.124C266.733 102.072 266.756 102.045 266.778 101.966C266.824 101.913 266.835 101.834 266.835 101.756C266.835 101.676 266.812 101.596 266.778 101.518C266.745 101.465 266.709 101.412 266.652 101.386L266.641 101.016C266.663 100.991 266.698 100.938 266.71 100.911C266.745 100.858 266.756 100.806 266.756 100.727C266.756 100.674 266.733 100.594 266.71 100.543C266.686 100.49 266.653 100.464 266.619 100.437L266.595 100.042L266.481 97.1973C266.481 97.1451 266.458 97.1175 266.436 97.1175C266.401 97.1451 266.377 97.1705 266.377 97.1973L266.263 100.042L266.252 100.437C266.206 100.465 266.184 100.49 266.161 100.543C266.127 100.594 266.114 100.674 266.114 100.727C266.114 100.806 266.114 100.858 266.148 100.911C266.161 100.938 266.195 100.991 266.23 101.016L266.206 101.386C266.161 101.412 266.114 101.465 266.092 101.518C266.046 101.596 266.022 101.676 266.022 101.756C266.022 101.834 266.046 101.913 266.08 101.966C266.104 102.045 266.137 102.072 266.184 102.124L266.16 102.518C266 102.624 265.794 102.782 265.587 102.967C265.381 103.151 265.187 103.388 265.084 103.625C265.004 103.862 264.981 104.1 264.993 104.311C264.993 104.468 265.028 104.627 265.061 104.732C264.374 105.179 263.551 105.786 262.807 106.497C262.424 106.866 262.061 107.254 261.752 107.662C259.538 101.412 254.358 96.9329 248.218 96.5366V95.8979C248.218 95.6677 248.054 95.4793 247.855 95.4793H247.571L247.339 88.7614C247.986 89.0157 248.689 89.1126 249.41 88.9662C250.573 88.7316 251.537 87.9728 252.159 86.9378C251.711 87.2556 251.209 87.4831 250.66 87.5936C248.37 88.0561 246.18 86.2894 245.78 83.6508C245.582 82.3435 245.853 81.07 246.458 80.0612C245.042 81.0766 244.224 83.0125 244.531 85.0238C244.789 86.7181 245.786 88.0421 247.072 88.6593L246.845 95.4793H246.554C246.46 95.4793 246.372 95.5213 246.305 95.5981C246.238 95.6743 246.201 95.7787 246.201 95.8856V96.5502C240.509 97.0237 235.666 101.009 233.303 106.639L233.254 98.1591H233.456C233.786 98.1591 234.059 97.8448 234.059 97.4708C234.059 97.096 233.786 96.7865 233.456 96.7865H233.254L233.208 87.256H233.456C233.748 87.256 233.992 86.9856 233.992 86.6498C233.992 86.3631 233.82 86.1206 233.59 86.0548V83.201H233.8C233.953 83.201 234.077 83.0572 234.077 82.8814C234.077 82.7109 233.954 82.5723 233.8 82.5723H233.541C233.694 82.0603 233.877 81.0801 233.498 80.0823C233.321 79.6189 232.958 79.1788 232.556 78.793C232.158 78.4186 231.718 78.0986 231.359 77.8676C231.378 77.8018 231.397 77.7247 231.397 77.6304C231.402 77.5147 231.392 77.3933 231.339 77.2736C231.296 77.1408 231.191 77.0193 231.076 76.9198C230.977 76.8264 230.862 76.7493 230.775 76.6945L230.766 76.4788C230.785 76.4573 230.809 76.4293 230.818 76.4016C230.838 76.3639 230.847 76.3253 230.847 76.2868C230.847 76.2412 230.838 76.1925 230.814 76.1601C230.804 76.1268 230.775 76.1044 230.751 76.082L230.747 75.8953C230.756 75.8782 230.775 75.8567 230.785 75.8287C230.798 75.8072 230.804 75.7739 230.804 75.7406C230.804 75.7081 230.798 75.6695 230.78 75.6419C230.77 75.6195 230.751 75.5972 230.727 75.5753L230.722 75.3767L230.665 73.8682C230.66 73.8459 230.651 73.8349 230.632 73.8349C230.612 73.8349 230.603 73.8511 230.603 73.8682L230.545 75.3767L230.537 75.5753C230.517 75.5976 230.498 75.62 230.488 75.6419C230.469 75.6695 230.459 75.7077 230.459 75.7406C230.459 75.7739 230.469 75.8072 230.483 75.8287C230.494 75.8567 230.508 75.8782 230.527 75.8953L230.518 76.082C230.489 76.1044 230.469 76.1268 230.45 76.1601C230.431 76.1925 230.422 76.2416 230.422 76.2868C230.422 76.3253 230.431 76.3639 230.45 76.4016C230.459 76.4293 230.479 76.4573 230.498 76.4788L230.494 76.6945C230.412 76.7493 230.296 76.8264 230.192 76.9198C230.076 77.0193 229.971 77.1408 229.924 77.2736C229.875 77.3933 229.867 77.5151 229.871 77.6304C229.875 77.7247 229.89 77.8018 229.904 77.8676C229.55 78.0986 229.11 78.4191 228.717 78.793C228.305 79.1792 227.952 79.6194 227.77 80.0823C227.387 81.0796 227.579 82.0603 227.727 82.5723H227.417C227.272 82.5723 227.148 82.7109 227.148 82.8814C227.148 83.0568 227.272 83.201 227.417 83.201H227.646V86.0548C227.412 86.1158 227.235 86.3578 227.235 86.6498C227.235 86.9856 227.473 87.256 227.761 87.256H228.02L227.971 96.7865H227.761C227.435 96.7865 227.168 97.0956 227.168 97.4708C227.168 97.8452 227.435 98.1591 227.761 98.1591H227.961L227.935 103.697C225.882 98.7167 219.757 99.2507 217.946 102.857V101.726H218.03C218.25 101.726 218.419 101.531 218.419 101.297C218.419 101.025 218.25 100.83 218.03 100.83H217.811C218.217 99.8157 219.182 96.541 217.911 93.2264C217.42 91.9003 216.422 90.6921 215.286 89.601C214.184 88.5471 212.949 87.6515 211.95 86.9878C211.984 86.8321 212.051 86.5972 212.051 86.3644C212.051 86.0518 212.017 85.7015 211.9 85.3504C211.763 84.9992 211.475 84.6481 211.153 84.3759C210.866 84.1027 210.545 83.8682 210.307 83.7121L210.289 83.1282C210.359 83.0502 210.392 83.0107 210.425 82.8937C210.494 82.8156 210.51 82.6986 210.51 82.5828C210.51 82.4645 210.476 82.3474 210.425 82.2308C210.376 82.1528 210.323 82.0743 210.24 82.0358L210.222 81.4895C210.255 81.4509 210.307 81.3729 210.324 81.3339C210.376 81.2559 210.392 81.1783 210.392 81.0617C210.392 80.9836 210.359 80.8657 210.324 80.7885C210.289 80.7105 210.24 80.6719 210.189 80.6329L210.155 80.0481L209.985 75.8374C209.985 75.7594 209.952 75.7199 209.918 75.7199C209.867 75.7594 209.832 75.798 209.832 75.8374L209.663 80.0481L209.647 80.6329C209.577 80.6724 209.545 80.7109 209.511 80.7885C209.46 80.8657 209.443 80.9836 209.443 81.0617C209.443 81.1783 209.443 81.2559 209.493 81.3339C209.511 81.3733 209.562 81.4514 209.613 81.4895L209.578 82.0358C209.511 82.0743 209.443 82.1532 209.41 82.2308C209.342 82.3474 209.308 82.4645 209.308 82.5828C209.308 82.6986 209.342 82.8156 209.392 82.8937C209.427 83.0111 209.478 83.0502 209.546 83.1282L209.511 83.7121C209.274 83.8677 208.97 84.1027 208.665 84.3759C208.36 84.6481 208.072 84.9992 207.919 85.3504C207.799 85.7015 207.767 86.0518 207.783 86.3644C207.783 86.5972 207.835 86.8317 207.885 86.9878C206.869 87.6515 205.649 88.5471 204.55 89.601C203.415 90.6917 202.398 91.8998 201.906 93.2264C200.637 96.541 201.618 99.8157 202.007 100.83H201.805C201.585 100.83 201.415 101.025 201.415 101.297C201.415 101.531 201.585 101.726 201.805 101.726H201.99V102.857H200.164L200.128 82.777H200.67C201.027 82.777 201.313 82.4259 201.313 82.0366C201.313 81.6083 201.026 81.2962 200.67 81.2962H200.128L200.078 70.184H200.264C200.569 70.184 200.84 69.9109 200.84 69.5598C200.84 69.17 200.569 68.8969 200.264 68.8969H200.059L200.027 59.8907H200.264C200.535 59.8907 200.772 59.6181 200.772 59.3059C200.772 59.0328 200.602 58.7987 200.382 58.7606V56.0308H200.586C200.737 56.0308 200.84 55.9133 200.84 55.7572C200.84 55.6011 200.737 55.4455 200.586 55.4455H200.349C200.484 54.9773 200.67 54.0423 200.299 53.1068C200.128 52.6776 199.789 52.248 199.417 51.8977C199.044 51.508 198.621 51.2344 198.282 51.0007C198.3 50.9622 198.317 50.8837 198.317 50.7666C198.317 50.6886 198.3 50.5729 198.265 50.4545C198.214 50.2989 198.13 50.1823 198.012 50.1038C197.91 50.0262 197.808 49.9486 197.722 49.9092V49.6755C197.741 49.6755 197.757 49.6369 197.757 49.597C197.791 49.597 197.791 49.558 197.791 49.519C197.791 49.4804 197.791 49.4405 197.757 49.402C197.757 49.3629 197.722 49.3239 197.69 49.3239V49.1293C197.722 49.1293 197.722 49.0907 197.741 49.0907C197.757 49.0508 197.757 49.0118 197.757 48.9723C197.757 48.9723 197.757 48.9338 197.722 48.8943C197.722 48.8562 197.707 48.8562 197.69 48.8562L197.673 48.6611L197.621 47.2184C197.621 47.2184 197.605 47.1794 197.587 47.1794C197.57 47.1794 197.554 47.2184 197.554 47.2184L197.503 48.6611V48.8562C197.486 48.8562 197.452 48.8562 197.452 48.8943C197.435 48.9338 197.419 48.9723 197.419 48.9723C197.419 49.0118 197.435 49.0508 197.452 49.0907C197.452 49.0907 197.469 49.1293 197.486 49.1293V49.3239C197.452 49.3239 197.435 49.3629 197.419 49.402C197.4 49.4405 197.385 49.4804 197.385 49.519C197.385 49.558 197.4 49.597 197.419 49.597C197.419 49.6369 197.452 49.6755 197.469 49.6755L197.452 49.9092C197.385 49.9486 197.282 50.0266 197.181 50.1038C197.062 50.1823 196.978 50.2985 196.91 50.4545C196.876 50.5729 196.876 50.6886 196.876 50.7666C196.876 50.8841 196.893 50.9622 196.91 51.0007C196.571 51.2344 196.148 51.508 195.774 51.8977C195.386 52.248 195.046 52.6771 194.878 53.1068C194.523 54.0423 194.71 54.9773 194.845 55.4455H194.556C194.403 55.4455 194.302 55.6007 194.302 55.7572C194.302 55.9137 194.403 56.0308 194.556 56.0308H194.76V56.7708C194.76 56.8106 194.76 56.8492 194.741 56.8882L194.76 56.9658V58.7606C194.54 58.7987 194.37 59.0328 194.37 59.3059C194.37 59.6181 194.607 59.8907 194.878 59.8907H195.116L195.081 68.8969H194.878C194.573 68.8969 194.302 69.17 194.302 69.5598C194.302 69.9109 194.573 70.184 194.878 70.184H195.063L195.013 81.2962H194.47C194.117 81.2962 193.827 81.6088 193.827 82.0366C193.827 82.4264 194.117 82.777 194.47 82.777H194.997L194.979 94.3574H194.014V89.7176H191.811V88.5874H191.898C192.1 88.5874 192.287 88.3915 192.287 88.1578C192.287 87.8856 192.1 87.6905 191.898 87.6905H191.694C192.083 86.6765 193.048 83.4009 191.795 80.0871C191.289 78.7619 190.289 77.5528 189.154 76.4617C188.052 75.4087 186.816 74.5113 185.818 73.8485C185.868 73.692 185.901 73.4588 185.935 73.1856C185.935 72.9125 185.901 72.5623 185.766 72.2111C185.631 71.86 185.343 71.5088 185.021 71.2357C184.734 70.9626 184.412 70.7289 184.174 70.5729L184.157 69.9889C184.224 69.91 184.276 69.8714 184.31 69.7544C184.344 69.6764 184.378 69.5593 184.378 69.4418C184.378 69.3243 184.344 69.2082 184.31 69.0916C184.242 69.0135 184.191 68.9359 184.107 68.8965L184.089 68.3511C184.14 68.3117 184.174 68.2337 184.208 68.1946C184.242 68.1166 184.276 68.039 184.276 67.9215C184.276 67.8444 184.242 67.7273 184.208 67.6484C184.174 67.5712 184.107 67.5318 184.057 67.4932L184.038 66.9084L183.87 62.6977C183.87 62.6188 183.836 62.5802 183.785 62.5802C183.733 62.6188 183.701 62.6583 183.701 62.6977L183.531 66.9084L183.515 67.4932C183.462 67.5318 183.412 67.5712 183.379 67.6484C183.327 67.7273 183.31 67.8444 183.31 67.9215C183.31 68.039 183.327 68.1166 183.362 68.1946C183.397 68.2341 183.43 68.3121 183.481 68.3511L183.463 68.8965C183.397 68.9359 183.328 69.014 183.277 69.0916C183.226 69.2082 183.193 69.3243 183.193 69.4418C183.193 69.5593 183.226 69.6764 183.26 69.7544C183.294 69.8719 183.362 69.91 183.43 69.9889L183.397 70.5729C183.159 70.7285 182.853 70.9626 182.548 71.2357C182.243 71.5088 181.938 71.86 181.804 72.2111C181.668 72.5623 181.634 72.9125 181.651 73.1856C181.668 73.4588 181.701 73.6915 181.751 73.8485C180.754 74.5113 179.534 75.4087 178.416 76.4617C177.281 77.5524 176.282 78.7615 175.79 80.0871C174.521 83.4009 175.503 86.6765 175.875 87.6905H175.673C175.469 87.6905 175.299 87.8856 175.299 88.1578C175.299 88.3915 175.469 88.5874 175.673 88.5874H175.875V89.7176H173.555V94.3574H171.879V90.8477C172.082 90.6921 172.252 90.458 172.252 90.1463C172.252 89.7171 171.981 89.327 171.642 89.2498V84.9208H171.964C172.183 84.9208 172.37 84.688 172.37 84.4543C172.37 84.1803 172.183 83.987 171.964 83.987H171.575C171.796 83.2062 172.082 81.7241 171.505 80.2042C171.235 79.5019 170.693 78.8386 170.083 78.2556C169.473 77.6699 168.813 77.2017 168.255 76.8514C168.29 76.7734 168.323 76.6169 168.323 76.4994C168.323 76.3061 168.323 76.1491 168.238 75.954C168.152 75.7598 168.017 75.5643 167.832 75.4087C167.679 75.2921 167.51 75.1356 167.374 75.0575V74.7458C167.408 74.7064 167.441 74.6678 167.441 74.6284C167.476 74.5889 167.492 74.5109 167.492 74.4727C167.492 74.3947 167.476 74.3162 167.441 74.2785C167.408 74.1996 167.374 74.161 167.34 74.161V73.8485C167.357 73.8485 167.374 73.8099 167.391 73.7704C167.409 73.7319 167.425 73.6915 167.425 73.6153C167.425 73.5758 167.409 73.5363 167.391 73.4978C167.374 73.4583 167.34 73.4189 167.305 73.3803V73.0686L167.205 70.8074C167.205 70.7688 167.187 70.7285 167.17 70.7285C167.138 70.7285 167.119 70.7688 167.119 70.8074L167.035 73.0686L167.018 73.3803C166.983 73.4189 166.967 73.4583 166.934 73.4978C166.917 73.5363 166.899 73.5758 166.899 73.6153C166.899 73.6915 166.917 73.7319 166.934 73.7704C166.95 73.8099 166.967 73.8485 167.001 73.8485V74.161C166.95 74.161 166.917 74.1996 166.899 74.2785C166.865 74.3162 166.831 74.3951 166.831 74.4727C166.831 74.5113 166.865 74.5894 166.882 74.6284C166.899 74.6678 166.934 74.7064 166.967 74.7458L166.95 75.0575C166.831 75.1356 166.662 75.2921 166.493 75.4087C166.325 75.5643 166.171 75.7598 166.085 75.954C166.02 76.1491 166.001 76.3446 166.02 76.4994C166.02 76.6169 166.036 76.7734 166.053 76.8514C165.528 77.2017 164.866 77.6699 164.258 78.2556C163.647 78.8386 163.106 79.5023 162.834 80.2042C162.258 81.7241 162.529 83.2062 162.766 83.987H162.292C162.073 83.987 161.886 84.1803 161.886 84.4543C161.886 84.688 162.073 84.9208 162.292 84.9208H162.632V89.2498C162.292 89.327 162.022 89.7171 162.022 90.1463C162.022 90.458 162.174 90.6917 162.361 90.8477V94.3574H162.336V94.2066C160.884 82.6135 154.66 72.9998 139.116 65.8102C131.122 62.1103 127.158 57.0825 125.217 53.3908C127.078 52.4549 128.38 50.3204 128.38 47.8334C128.38 44.8704 126.533 42.408 124.093 41.878L124.007 39.2034C124.681 38.8654 125.152 38.0947 125.152 37.1947C125.152 36.2386 124.617 35.4337 123.875 35.1343L123.668 28.7168C126.03 29.3007 128.548 29.2007 131 28.2495C134.683 26.8181 137.486 23.7977 139.057 20.0749C137.746 21.3673 136.209 22.3935 134.475 23.0678C127.214 25.8848 119.335 21.3909 116.884 13.0344C115.67 8.89345 116.009 4.59159 117.542 0.960449C113.365 5.07951 111.541 11.8447 113.41 18.2161C114.96 23.5101 118.696 27.246 123.07 28.562L122.73 35.0953C121.932 35.3566 121.344 36.1926 121.344 37.1947C121.344 38.1057 121.827 38.8864 122.514 39.217L122.378 41.8341C119.816 42.2462 117.843 44.7709 117.843 47.8334C117.843 50.4287 119.261 52.6364 121.253 53.5022C119.292 57.1828 115.326 62.148 107.412 65.8102C92.93 72.5092 86.5346 81.312 84.5553 91.8599V90.8477C84.7415 90.6921 84.8939 90.458 84.8939 90.1463C84.8939 89.7171 84.6242 89.327 84.2845 89.2498V84.9208H84.6242C84.8432 84.9208 85.0294 84.688 85.0294 84.4543C85.0294 84.1803 84.8432 83.987 84.6242 83.987H84.15C84.3873 83.2062 84.6577 81.7241 84.0819 80.2042C83.8103 79.5019 83.2691 78.8386 82.6578 78.2556C82.0496 77.6699 81.3881 77.2017 80.8629 76.8514C80.8804 76.7734 80.8964 76.6169 80.8964 76.4994C80.9146 76.3442 80.8964 76.1491 80.8305 75.954C80.7452 75.7598 80.5913 75.5643 80.423 75.4087C80.2539 75.2921 80.0844 75.1356 79.9659 75.0575L79.9488 74.7458C79.9823 74.7064 80.017 74.6678 80.0341 74.6284C80.0505 74.5889 80.0848 74.5109 80.0848 74.4727C80.0848 74.3947 80.0505 74.3162 80.017 74.2785C79.9994 74.1996 79.9659 74.161 79.9153 74.161V73.8485C79.9488 73.8485 79.9659 73.8099 79.9823 73.7704C79.9994 73.7319 80.017 73.6915 80.017 73.6153C80.017 73.5758 79.9994 73.5363 79.9823 73.4978C79.9488 73.4583 79.9328 73.4189 79.8981 73.3803L79.8818 73.0686L79.7964 70.8074C79.7964 70.7688 79.7782 70.7285 79.7458 70.7285C79.7287 70.7285 79.7111 70.7688 79.7111 70.8074L79.611 73.0686V73.3803C79.5763 73.4189 79.5416 73.4583 79.5245 73.4978C79.5074 73.5363 79.491 73.5758 79.491 73.6153C79.491 73.6915 79.5074 73.7319 79.5245 73.7704C79.5416 73.8099 79.5592 73.8485 79.5763 73.8485V74.161C79.5416 74.161 79.5074 74.1996 79.475 74.2785C79.4403 74.3162 79.424 74.3951 79.424 74.4727C79.424 74.5113 79.4403 74.5894 79.475 74.6284C79.475 74.6678 79.5074 74.7064 79.5417 74.7458V75.0575C79.4061 75.1356 79.2366 75.2921 79.0846 75.4087C78.8984 75.5643 78.7635 75.7598 78.6782 75.954C78.5933 76.1491 78.5933 76.3061 78.5933 76.4994C78.5933 76.6169 78.6264 76.7734 78.6611 76.8514C78.1028 77.2017 77.4431 77.6699 76.8326 78.2556C76.2225 78.8386 75.6813 79.5023 75.4109 80.2042C74.8339 81.7241 75.1206 83.2062 75.3415 83.987H74.9515C74.7329 83.987 74.5463 84.1803 74.5463 84.4543C74.5463 84.688 74.7329 84.9208 74.9515 84.9208H75.2741V89.2498C74.9355 89.327 74.6636 89.7171 74.6636 90.1463C74.6636 90.458 74.8338 90.6917 75.0365 90.8477V94.3574H73.3603V89.7176H71.0401V88.5874H71.2427C71.4465 88.5874 71.6167 88.3915 71.6167 88.1578C71.6167 87.8856 71.4465 87.6905 71.2427 87.6905H71.0401C71.413 86.6765 72.3944 83.4009 71.1254 80.0871C70.6337 78.7619 69.6355 77.5528 68.499 76.4617C67.382 75.4087 66.1617 74.5113 65.1642 73.8485C65.2141 73.692 65.2476 73.4588 65.2648 73.1856C65.2811 72.9125 65.2476 72.5623 65.1117 72.2111C64.9768 71.86 64.6733 71.5088 64.3678 71.2357C64.0628 70.9626 63.757 70.7289 63.5193 70.5729L63.4858 69.9889C63.5539 69.91 63.6217 69.8714 63.656 69.7544C63.6895 69.6764 63.723 69.5593 63.723 69.4418C63.723 69.3243 63.6895 69.2082 63.6389 69.0916C63.5882 69.0135 63.5193 68.9359 63.4526 68.8965L63.4351 68.3511C63.4858 68.3117 63.5193 68.2337 63.5539 68.1946C63.5886 68.1166 63.6057 68.039 63.6057 67.9215C63.6057 67.8444 63.5886 67.7273 63.5368 67.6484C63.5033 67.5712 63.4526 67.5318 63.4008 67.4932L63.3848 66.9084L63.2146 62.6977C63.2146 62.6583 63.1822 62.6188 63.1304 62.5802C63.0798 62.5802 63.0463 62.6188 63.0463 62.6977L62.8772 66.9084L62.8585 67.4932C62.809 67.5318 62.7408 67.5712 62.7077 67.6484C62.673 67.7273 62.6395 67.8444 62.6395 67.9215C62.6395 68.039 62.673 68.1166 62.7077 68.1946C62.7408 68.2341 62.7755 68.3121 62.8261 68.3511L62.809 68.8965C62.7237 68.9359 62.6734 69.014 62.6052 69.0916C62.5717 69.2082 62.5374 69.3243 62.5374 69.4418C62.5374 69.5593 62.5717 69.6764 62.6052 69.7544C62.6399 69.8719 62.6917 69.91 62.7583 69.9889L62.7408 70.5729C62.5039 70.7285 62.1813 70.9626 61.8945 71.2357C61.572 71.5088 61.284 71.86 61.1496 72.2111C61.014 72.5623 60.9805 72.9125 60.9805 73.1856C61.014 73.4588 61.0475 73.6915 61.097 73.8485C60.0988 74.5113 58.8633 75.4087 57.7615 76.4617C56.6265 77.5524 55.6271 78.7615 55.1198 80.0871C53.8672 83.4009 54.8319 86.6765 55.2215 87.6905H55.0178C54.8151 87.6905 54.6285 87.8856 54.6285 88.1578C54.6285 88.3915 54.8151 88.5874 55.0178 88.5874H55.1042V89.7176H52.9017V94.3574H51.9358L51.9183 82.777H52.4447C52.7985 82.777 53.0879 82.4259 53.0879 82.0366C53.0879 81.6083 52.7981 81.2962 52.4447 81.2962H51.9023L51.8517 70.184H52.0379C52.3418 70.184 52.6126 69.9109 52.6126 69.5598C52.6126 69.17 52.3418 68.8969 52.0379 68.8969H51.8342L51.7995 59.8907H52.0379C52.3087 59.8907 52.5456 59.6181 52.5456 59.3059C52.5456 59.0328 52.3754 58.7987 52.1556 58.7606V56.9658L52.1739 56.8882C52.1556 56.8492 52.1556 56.8106 52.1556 56.7708V56.0308H52.3594C52.5121 56.0308 52.6126 55.9133 52.6126 55.7572C52.6126 55.6011 52.5121 55.4455 52.3594 55.4455H52.0703C52.2059 54.9773 52.3917 54.0423 52.0379 53.1068C51.8688 52.6776 51.5291 52.248 51.1414 51.8977C50.7674 51.508 50.3442 51.2344 50.0049 51.0007C50.0224 50.9622 50.0395 50.8837 50.0395 50.7666C50.0395 50.6886 50.0395 50.5729 50.0049 50.4545C49.9371 50.2989 49.8533 50.1823 49.7345 50.1038C49.6328 50.0262 49.5307 49.9486 49.4637 49.9092L49.4465 49.6755C49.4637 49.6755 49.4961 49.6369 49.4961 49.597C49.5147 49.597 49.5307 49.558 49.5307 49.519C49.5307 49.4804 49.5147 49.4405 49.4961 49.402C49.4801 49.3629 49.4637 49.3239 49.429 49.3239V49.1293C49.4466 49.1293 49.4637 49.0907 49.4637 49.0907C49.4801 49.0508 49.4961 49.0118 49.4961 48.9723C49.4961 48.9723 49.4801 48.9338 49.4637 48.8943C49.4637 48.8562 49.429 48.8562 49.4119 48.8562V48.6611L49.3612 47.2184C49.3612 47.2184 49.3449 47.1794 49.3289 47.1794C49.3106 47.1794 49.2942 47.2184 49.2942 47.2184L49.2424 48.6611L49.2253 48.8562C49.2089 48.8562 49.1929 48.8562 49.1929 48.8943C49.1582 48.9338 49.1582 48.9723 49.1582 48.9723C49.1582 49.0118 49.1582 49.0508 49.1742 49.0907C49.1929 49.0907 49.1929 49.1293 49.2253 49.1293V49.3239C49.1929 49.3239 49.1582 49.3629 49.1582 49.402C49.1247 49.4405 49.1247 49.4804 49.1247 49.519C49.1247 49.558 49.1247 49.597 49.1582 49.597C49.1582 49.6369 49.1742 49.6755 49.1929 49.6755V49.9092C49.1076 49.9486 49.0051 50.0266 48.9038 50.1038C48.785 50.1823 48.7012 50.2985 48.6506 50.4545C48.6159 50.5729 48.5988 50.6886 48.5988 50.7666C48.5988 50.8841 48.6159 50.9622 48.633 51.0007C48.2945 51.2344 47.8709 51.508 47.4981 51.8977C47.126 52.248 46.7866 52.6771 46.6164 53.1068C46.2454 54.0423 46.4313 54.9773 46.5657 55.4455H46.3296C46.1776 55.4455 46.0752 55.6007 46.0752 55.7572C46.0752 55.9137 46.1776 56.0308 46.3296 56.0308H46.5334V58.7606C46.3136 58.7987 46.1434 59.0328 46.1434 59.3059C46.1434 59.6181 46.3803 59.8907 46.651 59.8907H46.8879L46.8559 68.8969H46.651C46.3467 68.8969 46.0752 69.17 46.0752 69.5598C46.0752 69.9109 46.3467 70.184 46.651 70.184H46.8373L46.7866 81.2962H46.2454C45.8886 81.2962 45.6018 81.6088 45.6018 82.0366C45.6018 82.4264 45.8889 82.777 46.2454 82.777H46.7866L46.752 102.857H44.9246V101.726H45.1101C45.331 101.726 45.5001 101.531 45.5001 101.297C45.5001 101.025 45.331 100.83 45.1101 100.83H44.9086C45.2967 99.8157 46.2789 96.541 45.0088 93.2264C44.5171 91.9003 43.5006 90.6921 42.3656 89.601C41.2657 88.5471 40.0466 87.6515 39.0301 86.9878C39.0807 86.8321 39.1325 86.5972 39.1325 86.3644C39.1485 86.0518 39.1154 85.7015 38.9969 85.3504C38.8438 84.9992 38.5559 84.6481 38.2508 84.3759C37.9457 84.1027 37.6414 83.8682 37.4042 83.7121L37.3699 83.1282C37.4377 83.0502 37.4887 83.0107 37.5226 82.8937C37.5737 82.8156 37.6079 82.6986 37.6079 82.5828C37.6079 82.4645 37.5737 82.3474 37.5055 82.2308C37.472 82.1528 37.4038 82.0743 37.3375 82.0358L37.3029 81.4895C37.3535 81.4509 37.4042 81.3729 37.4217 81.3339C37.4723 81.2559 37.4723 81.1783 37.4723 81.0617C37.4723 80.9836 37.4552 80.8657 37.4042 80.7885C37.3699 80.7105 37.3375 80.6719 37.2686 80.6329L37.2526 80.0481L37.0835 75.8374C37.0835 75.798 37.0488 75.7594 36.997 75.7199C36.9635 75.7199 36.93 75.7594 36.93 75.8374L36.7609 80.0481L36.7262 80.6329C36.6756 80.6724 36.6261 80.7109 36.5914 80.7885C36.5568 80.8657 36.5232 80.9836 36.5232 81.0617C36.5232 81.1783 36.5396 81.2559 36.5914 81.3339C36.6086 81.3733 36.6604 81.4514 36.6927 81.4895L36.6756 82.0358C36.5914 82.0743 36.54 82.1532 36.4901 82.2308C36.4394 82.3474 36.4048 82.4645 36.4048 82.5828C36.4048 82.6986 36.4212 82.8156 36.4901 82.8937C36.5236 83.0111 36.5571 83.0502 36.6261 83.1282L36.6086 83.7121C36.3705 83.8677 36.0491 84.1027 35.7623 84.3759C35.4397 84.6481 35.1518 84.9992 35.015 85.3504C34.8974 85.7015 34.8642 86.0518 34.8642 86.3644C34.8642 86.5972 34.9312 86.8317 34.9659 86.9878C33.9665 87.6515 32.731 88.5471 31.6292 89.601C30.4939 90.6917 29.4952 91.8998 29.0039 93.2264C27.7338 96.541 28.6985 99.8157 29.1041 100.83H28.8855C28.6654 100.83 28.4963 101.025 28.4963 101.297C28.4963 101.531 28.6654 101.726 28.8855 101.726H28.9697V102.857C27.1583 99.2507 21.0333 98.7167 18.9809 103.697L18.9538 98.1591H19.1542C19.4802 98.1591 19.7475 97.8448 19.7475 97.4708C19.7475 97.096 19.4806 96.7865 19.1542 96.7865H18.9439L18.8959 87.256H19.1542C19.4417 87.256 19.6809 86.9856 19.6809 86.6498C19.6809 86.3578 19.5034 86.1153 19.2696 86.0548V83.201H19.4988C19.6436 83.201 19.7673 83.0572 19.7673 82.8814C19.7673 82.7109 19.6436 82.5723 19.4988 82.5723H19.1881C19.337 82.0603 19.5285 81.0801 19.1454 80.0823C18.963 79.6189 18.6099 79.1788 18.1978 78.793C17.8052 78.4186 17.3645 78.0986 17.0111 77.8676C17.0252 77.8018 17.0396 77.7247 17.0446 77.6304C17.0488 77.5147 17.0396 77.3933 16.9916 77.2736C16.9437 77.1408 16.8389 77.0193 16.7231 76.9198C16.6188 76.8264 16.5034 76.7493 16.4219 76.6945L16.4169 76.4788C16.4364 76.4573 16.4558 76.4293 16.4653 76.4016C16.484 76.3639 16.4939 76.3253 16.4939 76.2868C16.4939 76.2412 16.484 76.1925 16.4653 76.1601C16.4459 76.1268 16.4265 76.1044 16.3979 76.082L16.3884 75.8953C16.4074 75.8782 16.4219 75.8567 16.4318 75.8287C16.4459 75.8072 16.4558 75.7739 16.4558 75.7406C16.4558 75.7081 16.4463 75.6695 16.4268 75.6419C16.4173 75.6195 16.3983 75.5972 16.3788 75.5753L16.3697 75.3767L16.3126 73.8682C16.3126 73.8511 16.3031 73.8349 16.2836 73.8349C16.2642 73.8349 16.2547 73.8459 16.2501 73.8682L16.193 75.3767L16.1877 75.5753C16.164 75.5976 16.1454 75.62 16.1347 75.6419C16.1168 75.6695 16.1111 75.7077 16.1111 75.7406C16.1111 75.7739 16.1168 75.8072 16.1305 75.8287C16.1397 75.8567 16.1591 75.8782 16.1682 75.8953L16.164 76.082C16.14 76.1044 16.1111 76.1268 16.1012 76.1601C16.0776 76.1925 16.0681 76.2416 16.0681 76.2868C16.0681 76.3253 16.0776 76.3639 16.097 76.4016C16.1061 76.4293 16.1305 76.4573 16.1499 76.4788L16.14 76.6945C16.054 76.7493 15.939 76.8264 15.8388 76.9198C15.7234 77.0193 15.6186 77.1408 15.5756 77.2736C15.5227 77.3933 15.5132 77.5151 15.5185 77.6304C15.5185 77.7247 15.5371 77.8018 15.5566 77.8676C15.1978 78.0986 14.7575 78.4191 14.3595 78.793C13.957 79.1792 13.594 79.6194 13.4169 80.0823C13.0387 81.0796 13.2208 82.0603 13.3739 82.5723H13.1153C12.9622 82.5723 12.838 82.7109 12.838 82.8814C12.838 83.0568 12.9618 83.201 13.1153 83.201H13.3255V86.0548C13.0955 86.1206 12.9233 86.3631 12.9233 86.6498C12.9233 86.9856 13.1682 87.256 13.4592 87.256H13.7079L13.6607 96.7865H13.4592C13.129 96.7865 12.8563 97.0956 12.8563 97.4708C12.8563 97.8452 13.129 98.1591 13.4592 98.1591H13.6607L13.6123 106.639C11.2491 101.009 6.40681 97.0237 0.71373 96.5502V95.8856C0.71373 95.7787 0.677167 95.6743 0.610517 95.5981C0.543486 95.5209 0.455507 95.4793 0.360674 95.4793H0.0689355L0 93.4118V164.04H313.777V126.271V125.26H311.773C311.943 124.631 312.058 123.976 312.058 123.284ZM17.2784 84.919V86.0373H15.3155V84.919C15.3155 84.919 15.306 84.8309 15.3776 84.7204C15.4545 84.61 15.421 84.5227 15.392 84.4122C15.1723 83.7069 16.1823 83.7411 16.3019 83.2005C16.4165 83.7406 17.4266 83.7064 17.2118 84.4122C17.1729 84.5227 17.144 84.61 17.2205 84.7204C17.2971 84.8309 17.2784 84.919 17.2784 84.919ZM48.2263 58.4831V56.4183C48.2263 55.6345 48.6864 54.9756 49.3098 54.7735C49.9367 54.9756 50.3956 55.6345 50.3956 56.4183V58.4362L50.3964 58.4831H48.2263ZM77.7322 87.5252H76.4727V84.3101C76.4727 83.2672 76.7378 82.3922 77.0992 82.1283C77.4648 82.3922 77.7322 83.2672 77.7322 84.3101V87.5252ZM78.2083 87.5213V84.4885C78.2083 83.3377 78.8839 82.3694 79.7995 82.073C80.72 82.3694 81.3941 83.3377 81.3941 84.4885V87.452L81.3953 87.5213H78.2083ZM83.2516 87.5349H81.9925V84.3105C81.9925 83.2676 82.2576 82.3926 82.6232 82.1287C82.9854 82.3926 83.2512 83.2676 83.2512 84.3105V87.5349H83.2516ZM164.923 87.5349H163.664V84.3105C163.664 83.2676 163.93 82.3926 164.292 82.1287C164.658 82.3926 164.923 83.2676 164.923 84.3105V87.5349H164.923ZM168.708 87.5213H165.521L165.522 87.452V84.4885C165.522 83.3377 166.197 82.3694 167.117 82.073C168.032 82.3694 168.708 83.3377 168.708 84.4885V87.5213H168.708ZM170.443 87.5252H169.183V84.3101C169.183 83.2672 169.451 82.3922 169.816 82.1283C170.178 82.3922 170.443 83.2672 170.443 84.3101V87.5252ZM198.69 58.4831H196.52L196.521 58.4362V56.4183C196.521 55.6345 196.98 54.9756 197.606 54.7735C198.23 54.9756 198.69 55.6345 198.69 56.4183V58.4831H198.69ZM231.6 84.919V86.0373H229.637V84.919C229.637 84.919 229.619 84.8309 229.695 84.7204C229.772 84.61 229.743 84.5227 229.704 84.4122C229.489 83.7069 230.499 83.7411 230.614 83.2005C230.734 83.7406 231.744 83.7064 231.524 84.4122C231.495 84.5227 231.461 84.61 231.539 84.7204C231.61 84.8309 231.6 84.919 231.6 84.919ZM294.672 121.086H293.413V117.062C293.413 116.019 293.679 115.143 294.041 114.88C294.406 115.143 294.672 116.019 294.672 117.062L294.672 121.086ZM298.39 121.155H295.975V121.086H295.205V116.627C295.205 115.477 295.879 114.508 296.799 114.212C297.714 114.508 298.39 115.477 298.39 116.627L298.39 121.155ZM300.192 121.155H298.932V117.062C298.932 116.019 299.2 115.143 299.565 114.88C299.927 115.143 300.192 116.019 300.192 117.062V121.155Z" fill="#00133F"/>
<path opacity="0.3" fill-rule="evenodd" clip-rule="evenodd" d="M0 86.1987V88.5695C1.20732 87.9215 2.13586 86.6458 2.38342 85.0234C2.68963 83.0121 1.87116 81.0762 0.455507 80.0609C1.06069 81.0696 1.33224 82.3426 1.13382 83.6503C0.982616 84.6499 0.573193 85.5231 0 86.1987Z" fill="#00133F"/>
</svg>
