<svg width="294" height="225" viewBox="0 0 294 225" fill="none" xmlns="http://www.w3.org/2000/svg">
<g opacity="0.15" filter="url(#filter0_d_301_736)">
<path d="M147.029 171C187.075 171 219.539 163.055 219.539 153.255C219.539 143.454 187.075 135.51 147.029 135.51C106.983 135.51 74.5187 143.454 74.5187 153.255C74.5187 163.055 106.983 171 147.029 171Z" fill="#042030"/>
</g>
<g filter="url(#filter1_d_301_736)">
<path d="M203.816 67.6173L147.029 88.0273L90.1841 67.6173L63 109.164L147.029 139.386L231 109.164L203.816 67.6173Z" fill="#455EB5"/>
<path opacity="0.45" d="M72.9061 107.468L142.594 135.51L118.635 110.557C118.635 110.557 79.2989 100.564 72.9061 107.468Z" fill="#240F4F"/>
<path opacity="0.45" d="M221.152 107.468L151.464 135.51L175.422 110.557C175.365 110.557 214.701 100.564 221.152 107.468Z" fill="#240F4F"/>
<path d="M147.029 139.386L63 109.164V113.101L147.029 143.322L231 113.101V109.164L147.029 139.386Z" fill="#0D2168"/>
<g filter="url(#filter2_d_301_736)">
<path d="M102.279 157.555L112.012 130.725L143.343 141.99L102.279 157.555Z" fill="#0B2062"/>
<path opacity="0.45" d="M104.986 149.803L143.343 141.99L112.012 130.725L104.986 149.803Z" fill="#0B2062"/>
<path d="M147.029 140.597L102.279 157.555L105.619 161.249L147.029 145.745L188.381 161.249L191.779 157.555L147.029 140.597Z" fill="#0D2168"/>
<path d="M191.779 157.555L181.988 130.725L150.657 141.99L191.779 157.555Z" fill="#0B2062"/>
<path opacity="0.45" d="M189.014 149.803L150.657 141.99L181.988 130.725L189.014 149.803Z" fill="#0B2062"/>
</g>
<path d="M147.029 145.745C148.715 145.745 150.081 144.308 150.081 142.535C150.081 140.762 148.715 139.325 147.029 139.325C145.343 139.325 143.976 140.762 143.976 142.535C143.976 144.308 145.343 145.745 147.029 145.745Z" fill="white" fill-opacity="0.5"/>
<path d="M201.397 67.6173L147.029 96.0823L92.6606 67.6173C90.1841 71.0694 70.2568 106.015 70.2568 106.015C70.4871 106.015 70.6599 106.075 70.8903 106.075C120.881 111.344 134.761 127.878 139.369 131.876C143.976 135.933 147.086 135.51 147.086 135.51C147.086 135.51 150.196 135.933 154.804 131.876C159.411 127.878 173.291 111.344 223.283 106.075C223.513 106.075 223.686 106.015 223.916 106.015C223.801 106.015 203.816 71.13 201.397 67.6173Z" fill="#F5B304"/>
<path d="M223.801 106.015C223.57 106.015 223.398 106.075 223.167 106.075C173.176 111.344 159.296 127.878 154.689 131.876C150.081 135.933 146.971 135.509 146.971 135.509C146.971 135.509 143.861 135.933 139.254 131.876C134.646 127.878 120.766 111.344 70.7751 106.075C70.5447 106.075 70.372 106.015 70.1416 106.015C69.7384 106.681 70.1416 107.166 70.1416 107.166C120.651 112.313 134.07 128.908 138.678 132.966C143.285 136.963 146.914 136.66 146.914 136.66C146.914 136.66 150.542 136.963 155.149 132.966C159.757 128.969 173.176 112.374 223.686 107.166C223.801 107.166 224.204 106.681 223.801 106.015Z" fill="#0D2168"/>
<path d="M199.324 64.2862C171.506 57.2608 146.971 81.3047 146.971 81.3047C146.971 81.3047 122.436 57.2608 94.6188 64.2862C94.6188 64.2862 86.7285 77.0047 75.8433 98.626C75.8433 98.626 130.615 105.106 146.971 129.271C163.328 105.106 218.099 98.626 218.099 98.626C207.214 77.0047 199.324 64.2862 199.324 64.2862Z" fill="#C2F0FF"/>
<path d="M218.099 98.626C218.099 98.626 163.328 105.106 146.971 129.271C130.672 105.106 75.9009 98.626 75.9009 98.626C75.9009 98.626 75.9009 100.564 72.8484 104.38C72.8484 104.38 122.552 108.135 140.636 129.816C144.898 134.904 146.971 134.298 146.971 134.298C146.971 134.298 149.102 134.904 153.306 129.816C171.333 108.135 221.094 104.38 221.094 104.38C218.099 100.504 218.099 98.626 218.099 98.626Z" fill="#A7E9FF"/>
<path d="M196.214 66.8299C196.214 66.8299 175.422 61.258 146.971 84.454C118.578 61.3186 97.7288 66.8299 97.7288 66.8299L83.676 95.5373C126.41 98.626 146.971 121.338 146.971 121.338C146.971 121.338 167.532 98.626 210.266 95.5373L196.214 66.8299ZM147.029 118.612C147.029 118.612 127.793 97.8993 87.0164 93.8415L98.8231 68.0412C98.8231 68.0412 119.269 63.8623 147.029 85.7865C174.789 63.8623 195.234 68.0412 195.234 68.0412L207.041 93.8415C166.265 97.8993 147.029 118.612 147.029 118.612Z" fill="#455EB5"/>
<path opacity="0.2" d="M152.27 106.072C159.949 100.116 183.946 86.9372 200.072 88.7541" stroke="#455EB5" stroke-width="3" stroke-linecap="round"/>
<path opacity="0.2" d="M152.27 89.3597C159.085 83.7483 176.805 72.7536 193.161 73.6666" stroke="#455EB5" stroke-width="3" stroke-linecap="round"/>
<path opacity="0.2" d="M152.27 97.8387C159.661 91.7956 178.878 79.9551 196.617 80.9384" stroke="#455EB5" stroke-width="3" stroke-linecap="round"/>
<path opacity="0.2" d="M142.479 106.072C134.8 100.116 110.802 86.9372 94.6763 88.7541" stroke="#455EB5" stroke-width="3" stroke-linecap="round"/>
<path opacity="0.2" d="M142.479 89.3597C135.664 83.7483 117.944 72.7536 101.588 73.6666" stroke="#455EB5" stroke-width="3" stroke-linecap="round"/>
<path opacity="0.2" d="M142.479 97.8387C135.088 91.7956 115.871 79.9551 98.1319 80.9384" stroke="#455EB5" stroke-width="3" stroke-linecap="round"/>
<path d="M147.029 81.3047C147.029 81.3047 147.605 79.185 148.699 79.7906C148.699 79.7906 148.008 114.13 149.16 127.515C149.448 130.846 152.212 135.388 153.306 137.084H151.867L151.463 138.477C151.463 138.477 147.202 130.907 147.029 127.939C146.165 114.615 146.626 84.5146 147.029 81.3047Z" fill="#54DAF5"/>
</g>
<path d="M135.7 61C135.7 61 135.5 63.6 133 63.9C135.5 64.2 135.7 66.8 135.7 66.8C135.7 66.8 135.9 64.2 138.4 63.9C135.9 63.7 135.7 61 135.7 61Z" fill="#FFD08A" fill-opacity="0.5"/>
<path d="M141.7 43C141.7 43 141.5 45.6 139 45.9C141.5 46.2 141.7 48.8 141.7 48.8C141.7 48.8 141.9 46.2 144.4 45.9C141.9 45.7 141.7 43 141.7 43Z" fill="#FFD08A" fill-opacity="0.5"/>
<path d="M208.1 139C208.1 139 207.6 146 201 146.6C207.6 147.3 208.1 154.2 208.1 154.2C208.1 154.2 208.6 147.2 215.2 146.6C208.6 146 208.1 139 208.1 139Z" fill="#FFD08A" fill-opacity="0.5"/>
<path d="M85.1 46C85.1 46 84.6 53 78 53.6C84.6 54.3 85.1 61.2 85.1 61.2C85.1 61.2 85.6 54.2 92.2 53.6C85.6 53 85.1 46 85.1 46Z" fill="#FFD08A" fill-opacity="0.5"/>
<path d="M190.2 35C190.2 35 189.8 40.1 185 40.6C189.8 41.1 190.2 46.2 190.2 46.2C190.2 46.2 190.6 41.1 195.4 40.6C190.6 40 190.2 35 190.2 35Z" fill="#FFD08A" fill-opacity="0.5"/>
<path d="M81.2 157C81.2 157 80.8 162.1 76 162.6C80.8 163.1 81.2 168.2 81.2 168.2C81.2 168.2 81.6 163.1 86.4 162.6C81.6 162 81.2 157 81.2 157Z" fill="#FFD08A" fill-opacity="0.5"/>
<defs>
<filter id="filter0_d_301_736" x="57.5187" y="122.51" width="179.02" height="69.4905" filterUnits="userSpaceOnUse" color-interpolation-filters="sRGB">
<feFlood flood-opacity="0" result="BackgroundImageFix"/>
<feColorMatrix in="SourceAlpha" type="matrix" values="0 0 0 0 0 0 0 0 0 0 0 0 0 0 0 0 0 0 127 0" result="hardAlpha"/>
<feOffset dy="4"/>
<feGaussianBlur stdDeviation="8.5"/>
<feComposite in2="hardAlpha" operator="out"/>
<feColorMatrix type="matrix" values="0 0 0 0 0 0 0 0 0 0 0 0 0 0 0 0 0 0 0.85 0"/>
<feBlend mode="normal" in2="BackgroundImageFix" result="effect1_dropShadow_301_736"/>
<feBlend mode="normal" in="SourceGraphic" in2="effect1_dropShadow_301_736" result="shape"/>
</filter>
<filter id="filter1_d_301_736" x="0" y="0" width="294" height="224.249" filterUnits="userSpaceOnUse" color-interpolation-filters="sRGB">
<feFlood flood-opacity="0" result="BackgroundImageFix"/>
<feColorMatrix in="SourceAlpha" type="matrix" values="0 0 0 0 0 0 0 0 0 0 0 0 0 0 0 0 0 0 127 0" result="hardAlpha"/>
<feOffset/>
<feGaussianBlur stdDeviation="31.5"/>
<feComposite in2="hardAlpha" operator="out"/>
<feColorMatrix type="matrix" values="0 0 0 0 0.396078 0 0 0 0 0.839216 0 0 0 0 0.988235 0 0 0 1 0"/>
<feBlend mode="normal" in2="BackgroundImageFix" result="effect1_dropShadow_301_736"/>
<feBlend mode="normal" in="SourceGraphic" in2="effect1_dropShadow_301_736" result="shape"/>
</filter>
<filter id="filter2_d_301_736" x="87.2787" y="119.725" width="119.5" height="60.5243" filterUnits="userSpaceOnUse" color-interpolation-filters="sRGB">
<feFlood flood-opacity="0" result="BackgroundImageFix"/>
<feColorMatrix in="SourceAlpha" type="matrix" values="0 0 0 0 0 0 0 0 0 0 0 0 0 0 0 0 0 0 127 0" result="hardAlpha"/>
<feOffset dy="4"/>
<feGaussianBlur stdDeviation="7.5"/>
<feComposite in2="hardAlpha" operator="out"/>
<feColorMatrix type="matrix" values="0 0 0 0 0 0 0 0 0 0 0 0 0 0 0 0 0 0 0.49 0"/>
<feBlend mode="normal" in2="BackgroundImageFix" result="effect1_dropShadow_301_736"/>
<feBlend mode="normal" in="SourceGraphic" in2="effect1_dropShadow_301_736" result="shape"/>
</filter>
</defs>
</svg>
