<svg width="254" height="225" viewBox="0 0 254 225" fill="none" xmlns="http://www.w3.org/2000/svg">
<g opacity="0.15" filter="url(#filter0_d_301_1170)">
<path d="M107.029 171C147.075 171 179.539 163.055 179.539 153.255C179.539 143.454 147.075 135.51 107.029 135.51C66.9826 135.51 34.5187 143.454 34.5187 153.255C34.5187 163.055 66.9826 171 107.029 171Z" fill="#042030"/>
</g>
<g filter="url(#filter1_d_301_1170)">
<path d="M163.816 67.6173L107.029 88.0273L50.1841 67.6173L23 109.164L107.029 139.386L191 109.164L163.816 67.6173Z" fill="#455EB5"/>
<path opacity="0.45" d="M32.9061 107.468L102.594 135.51L78.6353 110.557C78.6353 110.557 39.2989 100.564 32.9061 107.468Z" fill="#240F4F"/>
<path opacity="0.45" d="M181.152 107.468L111.464 135.51L135.422 110.557C135.365 110.557 174.701 100.564 181.152 107.468Z" fill="#240F4F"/>
<path d="M107.029 139.386L23 109.164V113.101L107.029 143.322L191 113.101V109.164L107.029 139.386Z" fill="#0D2168"/>
<g filter="url(#filter2_d_301_1170)">
<path d="M62.2787 157.555L72.012 130.725L103.343 141.99L62.2787 157.555Z" fill="#0B2062"/>
<path opacity="0.45" d="M64.9856 149.803L103.343 141.99L72.012 130.725L64.9856 149.803Z" fill="#0B2062"/>
<path d="M107.029 140.597L62.2787 157.555L65.6191 161.249L107.029 145.745L148.381 161.249L151.779 157.555L107.029 140.597Z" fill="#0D2168"/>
<path d="M151.779 157.555L141.988 130.725L110.657 141.99L151.779 157.555Z" fill="#0B2062"/>
<path opacity="0.45" d="M149.014 149.803L110.657 141.99L141.988 130.725L149.014 149.803Z" fill="#0B2062"/>
</g>
<path d="M107.029 145.745C108.715 145.745 110.081 144.308 110.081 142.535C110.081 140.762 108.715 139.325 107.029 139.325C105.343 139.325 103.976 140.762 103.976 142.535C103.976 144.308 105.343 145.745 107.029 145.745Z" fill="white" fill-opacity="0.5"/>
<path d="M161.397 67.6173L107.029 96.0823L52.6606 67.6173C50.1841 71.0694 30.2568 106.015 30.2568 106.015C30.4871 106.015 30.6599 106.075 30.8903 106.075C80.8814 111.344 94.7614 127.878 99.3689 131.876C103.976 135.933 107.086 135.51 107.086 135.51C107.086 135.51 110.196 135.933 114.804 131.876C119.411 127.878 133.291 111.344 183.283 106.075C183.513 106.075 183.686 106.015 183.916 106.015C183.801 106.015 163.816 71.13 161.397 67.6173Z" fill="#F5B304"/>
<path d="M183.801 106.015C183.57 106.015 183.398 106.075 183.167 106.075C133.176 111.344 119.296 127.878 114.689 131.876C110.081 135.933 106.971 135.509 106.971 135.509C106.971 135.509 103.861 135.933 99.2537 131.876C94.6462 127.878 80.7662 111.344 30.7751 106.075C30.5447 106.075 30.372 106.015 30.1416 106.015C29.7384 106.681 30.1416 107.166 30.1416 107.166C80.651 112.313 94.0703 128.908 98.6778 132.966C103.285 136.963 106.914 136.66 106.914 136.66C106.914 136.66 110.542 136.963 115.149 132.966C119.757 128.969 133.176 112.374 183.686 107.166C183.801 107.166 184.204 106.681 183.801 106.015Z" fill="#0D2168"/>
<path d="M159.324 64.2862C131.506 57.2608 106.971 81.3047 106.971 81.3047C106.971 81.3047 82.4364 57.2608 54.6188 64.2862C54.6188 64.2862 46.7285 77.0047 35.8433 98.626C35.8433 98.626 90.6147 105.106 106.971 129.271C123.328 105.106 178.099 98.626 178.099 98.626C167.214 77.0047 159.324 64.2862 159.324 64.2862Z" fill="#C2F0FF"/>
<path d="M178.099 98.626C178.099 98.626 123.328 105.106 106.971 129.271C90.6723 105.106 35.9009 98.626 35.9009 98.626C35.9009 98.626 35.9009 100.564 32.8485 104.38C32.8485 104.38 82.5516 108.135 100.636 129.816C104.898 134.904 106.971 134.298 106.971 134.298C106.971 134.298 109.102 134.904 113.306 129.816C131.333 108.135 181.094 104.38 181.094 104.38C178.099 100.504 178.099 98.626 178.099 98.626Z" fill="#A7E9FF"/>
<path d="M156.214 66.8299C156.214 66.8299 135.422 61.258 106.971 84.454C78.5777 61.3186 57.7289 66.8299 57.7289 66.8299L43.6761 95.5373C86.4104 98.626 106.971 121.338 106.971 121.338C106.971 121.338 127.532 98.626 170.266 95.5373L156.214 66.8299ZM107.029 118.612C107.029 118.612 87.7926 97.8993 47.0165 93.8415L58.8231 68.0412C58.8231 68.0412 79.2688 63.8623 107.029 85.7865C134.789 63.8623 155.235 68.0412 155.235 68.0412L167.041 93.8415C126.265 97.8993 107.029 118.612 107.029 118.612Z" fill="#455EB5"/>
<path opacity="0.2" d="M112.27 106.072C119.949 100.116 143.946 86.9372 160.072 88.7541" stroke="#455EB5" stroke-width="3" stroke-linecap="round"/>
<path opacity="0.2" d="M112.27 89.3597C119.085 83.7483 136.805 72.7536 153.161 73.6666" stroke="#455EB5" stroke-width="3" stroke-linecap="round"/>
<path opacity="0.2" d="M112.27 97.8387C119.661 91.7956 138.878 79.9551 156.617 80.9384" stroke="#455EB5" stroke-width="3" stroke-linecap="round"/>
<path opacity="0.2" d="M102.479 106.072C94.7998 100.116 70.8025 86.9372 54.6764 88.7541" stroke="#455EB5" stroke-width="3" stroke-linecap="round"/>
<path opacity="0.2" d="M102.479 89.3597C95.6637 83.7483 77.9441 72.7536 61.5876 73.6666" stroke="#455EB5" stroke-width="3" stroke-linecap="round"/>
<path opacity="0.2" d="M102.479 97.8387C95.0878 91.7956 75.8708 79.9551 58.132 80.9384" stroke="#455EB5" stroke-width="3" stroke-linecap="round"/>
<path d="M107.029 81.3047C107.029 81.3047 107.605 79.185 108.699 79.7906C108.699 79.7906 108.008 114.13 109.16 127.515C109.448 130.846 112.212 135.388 113.306 137.084H111.867L111.463 138.477C111.463 138.477 107.202 130.907 107.029 127.939C106.165 114.615 106.626 84.5146 107.029 81.3047Z" fill="#54DAF5"/>
</g>
<defs>
<filter id="filter0_d_301_1170" x="17.5187" y="122.51" width="179.02" height="69.4905" filterUnits="userSpaceOnUse" color-interpolation-filters="sRGB">
<feFlood flood-opacity="0" result="BackgroundImageFix"/>
<feColorMatrix in="SourceAlpha" type="matrix" values="0 0 0 0 0 0 0 0 0 0 0 0 0 0 0 0 0 0 127 0" result="hardAlpha"/>
<feOffset dy="4"/>
<feGaussianBlur stdDeviation="8.5"/>
<feComposite in2="hardAlpha" operator="out"/>
<feColorMatrix type="matrix" values="0 0 0 0 0 0 0 0 0 0 0 0 0 0 0 0 0 0 0.85 0"/>
<feBlend mode="normal" in2="BackgroundImageFix" result="effect1_dropShadow_301_1170"/>
<feBlend mode="normal" in="SourceGraphic" in2="effect1_dropShadow_301_1170" result="shape"/>
</filter>
<filter id="filter1_d_301_1170" x="-40" y="0" width="294" height="224.249" filterUnits="userSpaceOnUse" color-interpolation-filters="sRGB">
<feFlood flood-opacity="0" result="BackgroundImageFix"/>
<feColorMatrix in="SourceAlpha" type="matrix" values="0 0 0 0 0 0 0 0 0 0 0 0 0 0 0 0 0 0 127 0" result="hardAlpha"/>
<feOffset/>
<feGaussianBlur stdDeviation="31.5"/>
<feComposite in2="hardAlpha" operator="out"/>
<feColorMatrix type="matrix" values="0 0 0 0 0.396078 0 0 0 0 0.839216 0 0 0 0 0.988235 0 0 0 1 0"/>
<feBlend mode="normal" in2="BackgroundImageFix" result="effect1_dropShadow_301_1170"/>
<feBlend mode="normal" in="SourceGraphic" in2="effect1_dropShadow_301_1170" result="shape"/>
</filter>
<filter id="filter2_d_301_1170" x="47.2787" y="119.725" width="119.5" height="60.5243" filterUnits="userSpaceOnUse" color-interpolation-filters="sRGB">
<feFlood flood-opacity="0" result="BackgroundImageFix"/>
<feColorMatrix in="SourceAlpha" type="matrix" values="0 0 0 0 0 0 0 0 0 0 0 0 0 0 0 0 0 0 127 0" result="hardAlpha"/>
<feOffset dy="4"/>
<feGaussianBlur stdDeviation="7.5"/>
<feComposite in2="hardAlpha" operator="out"/>
<feColorMatrix type="matrix" values="0 0 0 0 0 0 0 0 0 0 0 0 0 0 0 0 0 0 0.49 0"/>
<feBlend mode="normal" in2="BackgroundImageFix" result="effect1_dropShadow_301_1170"/>
<feBlend mode="normal" in="SourceGraphic" in2="effect1_dropShadow_301_1170" result="shape"/>
</filter>
</defs>
</svg>
