<svg width="113" height="83" viewBox="0 0 113 83" fill="none" xmlns="http://www.w3.org/2000/svg">
<g style="mix-blend-mode:soft-light" opacity="0.2">
<path opacity="0.25" d="M68.1945 102.509C100.552 102.509 126.782 94.9793 126.782 85.6905C126.782 76.4017 100.552 68.8716 68.1945 68.8716C35.8374 68.8716 9.60674 76.4017 9.60674 85.6905C9.60674 94.9793 35.8374 102.509 68.1945 102.509Z" fill="#042030"/>
<path d="M114.078 4.52338L68.1945 23.868L22.2643 4.52338L0.299698 43.9015L68.1945 72.5453L136.043 43.9015L114.078 4.52338Z" fill="#4E2999"/>
<path opacity="0.45" d="M8.30376 42.2942L64.6113 68.8716L45.2527 45.2217C45.2527 45.2217 13.4692 35.7503 8.30376 42.2942Z" fill="#240F4F"/>
<path opacity="0.45" d="M128.085 42.2942L71.7777 68.8716L91.1364 45.2217C91.0898 45.2217 122.873 35.7503 128.085 42.2942Z" fill="#240F4F"/>
<path d="M68.1945 72.5453L0.299698 43.9015L0.299698 47.6327L68.1945 76.2765L136.043 47.6327V43.9015L68.1945 72.5453Z" fill="#65D6FC"/>
<path d="M32.0367 89.7661L39.9012 64.3368L65.2163 75.0137L32.0367 89.7661Z" fill="#455EB5"/>
<path opacity="0.45" d="M34.2239 82.4186L65.2163 75.0137L39.9012 64.3368L34.2239 82.4186Z" fill="#455EB5"/>
<path d="M68.1945 73.6934L32.0367 89.7661L34.7357 93.2677L68.1945 78.5726L101.607 93.2677L104.352 89.7661L68.1945 73.6934Z" fill="#65D6FC"/>
<path d="M104.352 89.7661L96.4414 64.3368L71.1263 75.0137L104.352 89.7661Z" fill="#455EB5"/>
<path opacity="0.45" d="M102.119 82.4186L71.1263 75.0137L96.4414 64.3368L102.119 82.4186Z" fill="#455EB5"/>
<path d="M68.1945 78.5726C69.5566 78.5726 70.6609 77.2105 70.6609 75.5302C70.6609 73.85 69.5566 72.4879 68.1945 72.4879C66.8324 72.4879 65.7281 73.85 65.7281 75.5302C65.7281 77.2105 66.8324 78.5726 68.1945 78.5726Z" fill="white" fill-opacity="0.5"/>
<path d="M112.124 4.52338L68.1945 31.5025L24.2653 4.52338C22.2643 7.79532 6.16315 40.9166 6.16315 40.9166C6.34929 40.9166 6.48889 40.974 6.67504 40.974C47.0676 45.968 58.2826 61.6389 62.0054 65.4274C65.7282 69.2734 68.2411 68.8716 68.2411 68.8716C68.2411 68.8716 70.754 69.2734 74.4768 65.4274C78.1996 61.6389 89.4146 45.968 129.807 40.974C129.993 40.974 130.133 40.9166 130.319 40.9166C130.226 40.9166 114.078 7.85272 112.124 4.52338Z" fill="#F5B304"/>
<path d="M130.226 40.9166C130.04 40.9166 129.9 40.974 129.714 40.974C89.3215 45.968 78.1065 61.6389 74.3837 65.4274C70.6609 69.2734 68.148 68.8716 68.148 68.8716C68.148 68.8716 65.6351 69.2734 61.9123 65.4274C58.1895 61.6389 46.9745 45.968 6.58196 40.974C6.39581 40.974 6.25621 40.9166 6.07007 40.9166C5.74432 41.548 6.07007 42.0072 6.07007 42.0072C46.8814 46.8864 57.7241 62.6147 61.4469 66.4607C65.1698 70.2492 68.1015 69.9622 68.1015 69.9622C68.1015 69.9622 71.0332 70.2492 74.756 66.4607C78.4788 62.6721 89.3215 46.9438 130.133 42.0072C130.226 42.0072 130.552 41.548 130.226 40.9166Z" fill="#65D6FC"/>
<path d="M110.448 1.36626C87.972 -5.29243 68.148 17.4963 68.148 17.4963C68.148 17.4963 48.324 -5.29243 25.8475 1.36626C25.8475 1.36626 19.4722 13.4208 10.677 33.9135C10.677 33.9135 54.932 40.0555 68.148 62.9591C81.364 40.0555 125.619 33.9135 125.619 33.9135C116.824 13.4208 110.448 1.36626 110.448 1.36626Z" fill="#D7F3FC"/>
<path d="M125.619 33.9135C125.619 33.9135 81.364 40.0555 68.148 62.9591C54.9785 40.0555 10.7236 33.9135 10.7236 33.9135C10.7236 33.9135 10.7236 35.7503 8.25722 39.3667C8.25722 39.3667 48.4171 42.9256 63.0291 63.4757C66.4727 68.2975 68.148 67.7235 68.148 67.7235C68.148 67.7235 69.8698 68.2975 73.2669 63.4757C87.8324 42.9256 128.039 39.3667 128.039 39.3667C125.619 35.6929 125.619 33.9135 125.619 33.9135Z" fill="#A8D3E1"/>
<path d="M107.936 3.77715C107.936 3.77715 91.1364 -1.50388 68.148 20.4813C45.2062 -1.44648 28.3604 3.77715 28.3604 3.77715L17.0058 30.9859C51.5349 33.9135 68.148 55.4394 68.148 55.4394C68.148 55.4394 84.7611 33.9135 119.29 30.9859L107.936 3.77715ZM68.1945 52.8563C68.1945 52.8563 52.6518 33.2246 19.7049 29.3787L29.2446 4.9252C29.2446 4.9252 45.7646 0.964433 68.1945 21.7441C90.6245 0.964433 107.144 4.9252 107.144 4.9252L116.684 29.3787C83.7373 33.2246 68.1945 52.8563 68.1945 52.8563Z" fill="#65D6FC"/>
<path opacity="0.2" d="M72.4292 40.9704C78.6339 35.3258 98.0236 22.8348 111.053 24.5568" stroke="#65D6FC" stroke-width="3" stroke-linecap="round"/>
<path opacity="0.2" d="M72.4292 25.1309C77.9359 19.8123 92.2532 9.39158 105.469 10.257" stroke="#65D6FC" stroke-width="3" stroke-linecap="round"/>
<path opacity="0.2" d="M72.4292 33.1672C78.4012 27.4396 93.9285 16.2172 108.261 17.1492" stroke="#65D6FC" stroke-width="3" stroke-linecap="round"/>
<path opacity="0.2" d="M64.5183 40.9704C58.3136 35.3258 38.9239 22.8348 25.8941 24.5568" stroke="#65D6FC" stroke-width="3" stroke-linecap="round"/>
<path opacity="0.2" d="M64.5183 25.1309C59.0116 19.8123 44.6943 9.39158 31.4783 10.257" stroke="#65D6FC" stroke-width="3" stroke-linecap="round"/>
<path opacity="0.2" d="M64.5183 33.1672C58.5463 27.4396 43.019 16.2172 28.6862 17.1492" stroke="#65D6FC" stroke-width="3" stroke-linecap="round"/>
<path d="M68.1945 17.4963C68.1945 17.4963 68.6599 15.4873 69.5441 16.0613C69.5441 16.0613 68.9856 48.6085 69.9163 61.2944C70.149 64.4516 72.3827 68.7567 73.2669 70.364H72.1035L71.7777 71.6843C71.7777 71.6843 68.3341 64.509 68.1945 61.6963C67.4965 49.0677 67.8688 20.5387 68.1945 17.4963Z" fill="#54DAF5"/>
</g>
</svg>
