<svg width="618" height="430" viewBox="0 0 618 430" fill="none" xmlns="http://www.w3.org/2000/svg">
<path d="M74.9074 0C74.9074 0 74.4877 5.4563 69.2412 6.08587C74.4877 6.71544 74.9074 12.1717 74.9074 12.1717C74.9074 12.1717 75.3271 6.71544 80.5735 6.08587C75.3271 5.66615 74.9074 0 74.9074 0Z" fill="#FFD08A"/>
<path d="M356.125 86.0511C356.125 86.0511 355.705 91.5075 350.458 92.137C355.705 92.7666 356.125 98.2229 356.125 98.2229C356.125 98.2229 356.544 92.7666 361.791 92.137C356.544 91.7173 356.125 86.0511 356.125 86.0511Z" fill="#FFD08A"/>
<path d="M150.456 65.0637C150.456 65.0637 150.036 70.52 144.79 71.1496C150.036 71.7792 150.456 77.2355 150.456 77.2355C150.456 77.2355 150.876 71.7792 156.122 71.1496C150.876 70.7299 150.456 65.0637 150.456 65.0637Z" fill="#FFD08A"/>
<path d="M612.145 209.863C612.145 209.863 611.726 215.32 606.479 215.949C611.726 216.579 612.145 222.035 612.145 222.035C612.145 222.035 612.565 216.579 617.811 215.949C612.355 215.53 612.145 209.863 612.145 209.863Z" fill="#FFD08A"/>
<path d="M367.872 334.932C367.872 334.932 367.452 340.388 362.206 341.017C367.452 341.647 367.872 347.103 367.872 347.103C367.872 347.103 368.292 341.647 373.538 341.017C368.082 340.598 367.872 334.932 367.872 334.932Z" fill="#FFD08A"/>
<path d="M275.109 146.911C275.109 146.911 274.059 161.601 260.209 162.86C274.059 164.329 275.109 178.81 275.109 178.81C275.109 178.81 276.158 164.119 290.009 162.86C276.158 161.601 275.109 146.911 275.109 146.911Z" fill="#FFD08A"/>
<path d="M14.8999 123.194C14.8999 123.194 13.8506 137.884 0 139.143C13.8506 140.612 14.8999 155.092 14.8999 155.092C14.8999 155.092 15.9492 140.402 29.7998 139.143C15.9492 137.884 14.8999 123.194 14.8999 123.194Z" fill="#FFD08A"/>
<path d="M260.63 0.00354004C260.63 0.00354004 259.79 10.7063 249.717 11.7556C259.79 12.8049 260.63 23.5076 260.63 23.5076C260.63 23.5076 261.469 12.8049 271.543 11.7556C261.469 10.4964 260.63 0.00354004 260.63 0.00354004Z" fill="#FFD08A"/>
<path d="M106.179 199.364C106.179 199.364 105.549 208.808 96.5253 209.857C105.549 210.697 106.179 220.35 106.179 220.35C106.179 220.35 106.808 210.906 115.832 209.857C107.018 208.808 106.179 199.364 106.179 199.364Z" fill="#FFD08A"/>
<path d="M192.006 409.014C192.006 409.014 191.376 418.458 182.352 419.507C191.376 420.347 192.006 430 192.006 430C192.006 430 192.635 420.556 201.659 419.507C192.635 418.458 192.006 409.014 192.006 409.014Z" fill="#FFD08A"/>
</svg>
