<svg width="205" height="181" viewBox="0 0 205 181" fill="none" xmlns="http://www.w3.org/2000/svg">
<g filter="url(#filter0_f_301_736)">
<rect x="50.7034" y="52.4188" width="123.593" height="78.5811" rx="11" fill="url(#paint0_linear_301_736)" fill-opacity="0.8"/>
</g>
<path d="M87.7 109C87.7 109 87.5 111.6 85 111.9C87.5 112.2 87.7 114.8 87.7 114.8C87.7 114.8 87.9 112.2 90.4 111.9C87.9 111.7 87.7 109 87.7 109Z" fill="#FFD08A" fill-opacity="0.5"/>
<path d="M108.7 0C108.7 0 108.5 2.6 106 2.9C108.5 3.2 108.7 5.8 108.7 5.8C108.7 5.8 108.9 3.2 111.4 2.9C108.9 2.7 108.7 0 108.7 0Z" fill="#FFD08A" fill-opacity="0.5"/>
<path d="M161.1 80C161.1 80 160.6 87 154 87.6C160.6 88.3 161.1 95.2 161.1 95.2C161.1 95.2 161.6 88.2 168.2 87.6C161.6 87 161.1 80 161.1 80Z" fill="#FFD08A" fill-opacity="0.5"/>
<path d="M87.1 9C87.1 9 86.6 16 80 16.6C86.6 17.3 87.1 24.2 87.1 24.2C87.1 24.2 87.6 17.2 94.2 16.6C87.6 16 87.1 9 87.1 9Z" fill="#FFD08A" fill-opacity="0.5"/>
<path d="M163.2 6C163.2 6 162.8 11.1 158 11.6C162.8 12.1 163.2 17.2 163.2 17.2C163.2 17.2 163.6 12.1 168.4 11.6C163.6 11 163.2 6 163.2 6Z" fill="#FFD08A" fill-opacity="0.5"/>
<defs>
<filter id="filter0_f_301_736" x="0.703369" y="2.41876" width="223.593" height="178.581" filterUnits="userSpaceOnUse" color-interpolation-filters="sRGB">
<feFlood flood-opacity="0" result="BackgroundImageFix"/>
<feBlend mode="normal" in="SourceGraphic" in2="BackgroundImageFix" result="shape"/>
<feGaussianBlur stdDeviation="25" result="effect1_foregroundBlur_301_736"/>
</filter>
<linearGradient id="paint0_linear_301_736" x1="50.7034" y1="52.4188" x2="121.862" y2="164.338" gradientUnits="userSpaceOnUse">
<stop stop-color="#65D6FC"/>
<stop offset="1" stop-color="#455EB5"/>
</linearGradient>
</defs>
</svg>
